<svg width="542" height="218" viewBox="0 0 542 218" fill="none" xmlns="http://www.w3.org/2000/svg">
<g opacity="0.5">
<mask id="path-1-outside-1_54_657" maskUnits="userSpaceOnUse" x="-2" y="-1" width="545" height="220" fill="black">
<rect fill="white" x="-2" y="-1" width="545" height="220"/>
<path d="M80.8035 82.9C110.404 82.9 132.204 88.8 146.204 100.6C160.404 112.4 167.504 128.2 167.504 148C167.504 160.8 164.304 172.5 157.904 183.1C151.504 193.5 141.704 201.9 128.504 208.3C115.504 214.5 99.4035 217.6 80.2035 217.6C65.4035 217.6 50.8035 215.7 36.4035 211.9C22.2035 207.9 10.1035 202.3 0.103516 195.1L19.3035 157.9C27.3035 163.9 36.5035 168.6 46.9035 172C57.3035 175.2 68.0035 176.8 79.0035 176.8C91.2035 176.8 100.804 174.4 107.804 169.6C114.804 164.8 118.304 158.1 118.304 149.5C118.304 140.5 114.604 133.7 107.204 129.1C100.004 124.5 87.4035 122.2 69.4035 122.2H15.7035L26.5035 3.99999H154.604V43H67.0035L63.7035 82.9H80.8035ZM277.221 217.6C259.821 217.6 244.321 213.3 230.721 204.7C217.121 196.1 206.421 183.7 198.621 167.5C191.021 151.1 187.221 131.6 187.221 109C187.221 86.4 191.021 67 198.621 50.8C206.421 34.4 217.121 21.9 230.721 13.3C244.321 4.69999 259.821 0.399996 277.221 0.399996C294.621 0.399996 310.121 4.69999 323.721 13.3C337.321 21.9 347.921 34.4 355.521 50.8C363.321 67 367.222 86.4 367.222 109C367.222 131.6 363.321 151.1 355.521 167.5C347.921 183.7 337.321 196.1 323.721 204.7C310.121 213.3 294.621 217.6 277.221 217.6ZM277.221 176.5C290.021 176.5 300.021 171 307.221 160C314.621 149 318.321 132 318.321 109C318.321 86 314.621 69 307.221 58C300.021 47 290.021 41.5 277.221 41.5C264.621 41.5 254.621 47 247.221 58C240.021 69 236.421 86 236.421 109C236.421 132 240.021 149 247.221 160C254.621 171 264.621 176.5 277.221 176.5ZM541.707 127.3H489.507V178.3H450.807V127.3H398.907V90.7H450.807V39.7H489.507V90.7H541.707V127.3Z"/>
</mask>
<path d="M80.8035 82.9C110.404 82.9 132.204 88.8 146.204 100.6C160.404 112.4 167.504 128.2 167.504 148C167.504 160.8 164.304 172.5 157.904 183.1C151.504 193.5 141.704 201.9 128.504 208.3C115.504 214.5 99.4035 217.6 80.2035 217.6C65.4035 217.6 50.8035 215.7 36.4035 211.9C22.2035 207.9 10.1035 202.3 0.103516 195.1L19.3035 157.9C27.3035 163.9 36.5035 168.6 46.9035 172C57.3035 175.2 68.0035 176.8 79.0035 176.8C91.2035 176.8 100.804 174.4 107.804 169.6C114.804 164.8 118.304 158.1 118.304 149.5C118.304 140.5 114.604 133.7 107.204 129.1C100.004 124.5 87.4035 122.2 69.4035 122.2H15.7035L26.5035 3.99999H154.604V43H67.0035L63.7035 82.9H80.8035ZM277.221 217.6C259.821 217.6 244.321 213.3 230.721 204.7C217.121 196.1 206.421 183.7 198.621 167.5C191.021 151.1 187.221 131.6 187.221 109C187.221 86.4 191.021 67 198.621 50.8C206.421 34.4 217.121 21.9 230.721 13.3C244.321 4.69999 259.821 0.399996 277.221 0.399996C294.621 0.399996 310.121 4.69999 323.721 13.3C337.321 21.9 347.921 34.4 355.521 50.8C363.321 67 367.222 86.4 367.222 109C367.222 131.6 363.321 151.1 355.521 167.5C347.921 183.7 337.321 196.1 323.721 204.7C310.121 213.3 294.621 217.6 277.221 217.6ZM277.221 176.5C290.021 176.5 300.021 171 307.221 160C314.621 149 318.321 132 318.321 109C318.321 86 314.621 69 307.221 58C300.021 47 290.021 41.5 277.221 41.5C264.621 41.5 254.621 47 247.221 58C240.021 69 236.421 86 236.421 109C236.421 132 240.021 149 247.221 160C254.621 171 264.621 176.5 277.221 176.5ZM541.707 127.3H489.507V178.3H450.807V127.3H398.907V90.7H450.807V39.7H489.507V90.7H541.707V127.3Z" fill="url(#paint0_linear_54_657)" fill-opacity="0.25"/>
<path d="M36.85 211.9L36.5789 212.863L36.5868 212.865L36.5948 212.867L36.85 211.9ZM0.25 195.1L-0.63862 194.641L-1.03789 195.415L-0.326683 195.917L0.25 195.1ZM19.45 157.9L20.037 157.09L19.095 156.407L18.5614 157.441L19.45 157.9ZM47.05 171.7L46.7393 172.651L46.7446 172.652L47.05 171.7ZM107.95 169.6L108.516 170.425L107.95 169.6ZM99.25 125.5L98.9502 126.454L98.9578 126.456L99.25 125.5ZM15.85 122.2L14.8541 122.109L14.7545 123.2H15.85V122.2ZM26.65 3.99999V2.99999H25.7372L25.6542 3.90899L26.65 3.99999ZM154.75 3.99999H155.75V2.99999H154.75V3.99999ZM154.75 43V44H155.75V43H154.75ZM44.05 43L43.389 42.2496L41.4021 44H44.05V43ZM69.25 20.8L70.2461 20.8886L70.468 18.3943L68.589 20.0496L69.25 20.8ZM61.75 105.1L61.089 105.85L62.571 107.156L62.7461 105.189L61.75 105.1ZM36.55 82.9V81.9H33.9021L35.889 83.6504L36.55 82.9ZM131.05 91.6L130.632 92.5084L130.64 92.5123L130.649 92.5162L131.05 91.6ZM158.95 114.7L159.811 114.191L158.95 114.7ZM158.35 182.5L159.209 183.012L159.213 183.005L158.35 182.5ZM129.55 208L129.997 208.894L130.003 208.892L129.55 208ZM80.35 216.6C65.8379 216.6 51.4236 214.712 37.1052 210.933L36.5948 212.867C51.0764 216.688 65.6622 218.6 80.35 218.6V216.6ZM37.1211 210.937C23.0111 206.963 10.9187 201.407 0.826683 194.283L-0.326683 195.917C9.98129 203.193 22.2889 208.837 36.5789 212.863L37.1211 210.937ZM1.13862 195.559L20.3386 158.359L18.5614 157.441L-0.63862 194.641L1.13862 195.559ZM18.863 158.71C26.9557 164.577 36.2509 169.222 46.7393 172.65L47.3607 170.749C37.0491 167.378 27.9443 162.823 20.037 157.09L18.863 158.71ZM46.7446 172.652C57.4402 176.083 68.2432 177.8 79.15 177.8V175.8C68.4568 175.8 57.8598 174.117 47.3554 170.748L46.7446 172.652ZM79.15 177.8C91.4674 177.8 101.291 175.379 108.516 170.425L107.384 168.775C100.609 173.421 91.2326 175.8 79.15 175.8V177.8ZM108.516 170.425C115.792 165.435 119.45 158.424 119.45 149.5H117.45C117.45 157.776 114.108 164.165 107.384 168.775L108.516 170.425ZM119.45 149.5C119.45 143.917 117.999 138.921 115.082 134.545L113.418 135.655C116.101 139.679 117.45 144.283 117.45 149.5H119.45ZM115.082 134.545C112.104 130.078 106.859 126.779 99.5422 124.544L98.9578 126.456C106.041 128.621 110.796 131.722 113.418 135.655L115.082 134.545ZM99.5498 124.546C92.4065 122.301 82.388 121.2 69.55 121.2V123.2C82.312 123.2 92.0935 124.299 98.9502 126.454L99.5498 124.546ZM69.55 121.2H15.85V123.2H69.55V121.2ZM16.8459 122.291L27.6459 4.09098L25.6542 3.90899L14.8541 122.109L16.8459 122.291ZM26.65 4.99999H154.75V2.99999H26.65V4.99999ZM153.75 3.99999V43H155.75V3.99999H153.75ZM154.75 42H44.05V44H154.75V42ZM44.711 43.7503L69.911 21.5503L68.589 20.0496L43.389 42.2496L44.711 43.7503ZM68.2539 20.7114L60.7539 105.011L62.7461 105.189L70.2461 20.8886L68.2539 20.7114ZM62.411 104.35L37.211 82.1496L35.889 83.6504L61.089 105.85L62.411 104.35ZM36.55 83.9H80.95V81.9H36.55V83.9ZM80.95 83.9C101.671 83.9 118.212 86.7912 130.632 92.5084L131.468 90.6916C118.688 84.8088 101.829 81.9 80.95 81.9V83.9ZM130.649 92.5162C143.301 98.0515 152.418 105.627 158.089 115.209L159.811 114.191C153.882 104.173 144.399 96.3485 131.451 90.6838L130.649 92.5162ZM158.089 115.209C163.79 124.842 166.65 135.763 166.65 148H168.65C168.65 135.437 165.71 124.158 159.811 114.191L158.089 115.209ZM166.65 148C166.65 160.224 163.596 171.55 157.487 181.995L159.213 183.005C165.504 172.25 168.65 160.576 168.65 148H166.65ZM157.491 181.988C151.406 192.195 141.963 200.576 129.097 207.108L130.003 208.892C143.137 202.224 152.894 193.605 159.209 183.012L157.491 181.988ZM129.103 207.106C116.486 213.414 100.253 216.6 80.35 216.6V218.6C100.447 218.6 117.014 215.386 129.997 208.894L129.103 207.106ZM231.168 205L230.633 205.845L230.642 205.851L231.168 205ZM199.068 167.8L198.167 168.234L199.068 167.8ZM199.068 50.2L199.969 50.6338L199.068 50.2ZM231.168 13.3L231.693 14.1508L231.702 14.1452L231.168 13.3ZM323.568 13.3L323.028 14.1416L323.035 14.1462L323.042 14.1508L323.568 13.3ZM355.668 50.2L354.767 50.6338L355.668 50.2ZM355.668 167.8L354.767 167.366L355.668 167.8ZM323.568 205L324.099 205.847L324.102 205.845L323.568 205ZM298.668 169.6L298.072 168.797L298.066 168.802L298.06 168.806L298.668 169.6ZM313.068 147.7L312.127 147.361L312.124 147.37L312.121 147.378L313.068 147.7ZM313.068 70.3L312.121 70.6219L312.124 70.6303L312.127 70.6387L313.068 70.3ZM298.668 48.4L298.06 49.1936L298.066 49.1984L298.072 49.2031L298.668 48.4ZM256.068 48.4L255.472 47.5969L255.466 47.6016L255.46 47.6064L256.068 48.4ZM241.668 70.3L240.727 69.9613L240.724 69.9697L240.721 69.9781L241.668 70.3ZM241.668 147.7L240.721 148.022L240.724 148.03L240.727 148.039L241.668 147.7ZM256.068 169.6L255.46 170.394L255.466 170.398L255.472 170.403L256.068 169.6ZM277.368 216.6C260.339 216.6 245.124 212.444 231.693 204.149L230.642 205.851C244.412 214.356 259.997 218.6 277.368 218.6V216.6ZM231.702 204.155C218.279 195.666 207.698 183.418 199.969 167.366L198.167 168.234C206.038 184.582 216.857 197.134 230.634 205.845L231.702 204.155ZM199.969 167.366C192.25 151.334 188.368 131.89 188.368 109H186.368C186.368 132.11 190.286 151.866 198.167 168.234L199.969 167.366ZM188.368 109C188.368 86.1096 192.25 66.6661 199.969 50.6338L198.167 49.7662C190.286 66.1338 186.368 85.8903 186.368 109H188.368ZM199.969 50.6338C207.697 34.5837 218.276 22.4383 231.693 14.1508L230.642 12.4492C216.86 20.9617 206.039 33.4163 198.167 49.7662L199.969 50.6338ZM231.702 14.1452C245.131 5.65335 260.344 1.4 277.368 1.4V-0.600004C259.992 -0.600004 244.405 3.74664 230.634 12.4548L231.702 14.1452ZM277.368 1.4C294.595 1.4 309.804 5.65456 323.028 14.1416L324.108 12.4584C310.532 3.74543 294.941 -0.600004 277.368 -0.600004V1.4ZM323.042 14.1508C336.46 22.4383 347.039 34.5837 354.767 50.6338L356.569 49.7662C348.697 33.4163 337.876 20.9617 324.093 12.4492L323.042 14.1508ZM354.767 50.6338C362.486 66.6661 366.368 86.1096 366.368 109H368.368C368.368 85.8903 364.45 66.1338 356.569 49.7662L354.767 50.6338ZM366.368 109C366.368 131.89 362.486 151.334 354.767 167.366L356.569 168.234C364.45 151.866 368.368 132.11 368.368 109H366.368ZM354.767 167.366C347.038 183.418 336.457 195.666 323.034 204.155L324.102 205.845C337.879 197.134 348.698 184.582 356.569 168.234L354.767 167.366ZM323.037 204.153C309.812 212.443 294.6 216.6 277.368 216.6V218.6C294.936 218.6 310.524 214.357 324.099 205.847L323.037 204.153ZM277.368 177.5C285.768 177.5 293.087 175.139 299.276 170.394L298.06 168.806C292.249 173.261 285.368 175.5 277.368 175.5V177.5ZM299.264 170.403C305.677 165.645 310.573 158.145 314.015 148.022L312.121 147.378C308.763 157.255 304.059 164.355 298.072 168.797L299.264 170.403ZM314.009 148.039C317.662 137.891 319.468 124.865 319.468 109H317.468C317.468 124.735 315.674 137.509 312.127 147.361L314.009 148.039ZM319.468 109C319.468 93.1352 317.662 80.1091 314.009 69.9613L312.127 70.6387C315.674 80.4909 317.468 93.2647 317.468 109H319.468ZM314.015 69.9781C310.573 59.8548 305.677 52.3551 299.264 47.5969L298.072 49.2031C304.059 53.6449 308.763 60.7452 312.121 70.6219L314.015 69.9781ZM299.276 47.6064C293.087 42.861 285.768 40.5 277.368 40.5V42.5C285.368 42.5 292.249 44.739 298.06 49.1936L299.276 47.6064ZM277.368 40.5C269.162 40.5 261.851 42.8641 255.472 47.5969L256.664 49.2031C262.685 44.7358 269.574 42.5 277.368 42.5V40.5ZM255.46 47.6064C249.257 52.3613 244.367 59.851 240.727 69.9613L242.609 70.6387C246.169 60.7489 250.878 53.6387 256.676 49.1936L255.46 47.6064ZM240.721 69.9781C237.273 80.1196 235.568 93.1393 235.568 109H237.568C237.568 93.2607 239.263 80.4804 242.615 70.6219L240.721 69.9781ZM235.568 109C235.568 124.861 237.273 137.88 240.721 148.022L242.615 147.378C239.263 137.52 237.568 124.739 237.568 109H235.568ZM240.727 148.039C244.367 158.149 249.257 165.639 255.46 170.394L256.676 168.806C250.878 164.361 246.169 157.251 242.609 147.361L240.727 148.039ZM255.472 170.403C261.851 175.136 269.162 177.5 277.368 177.5V175.5C269.574 175.5 262.685 173.264 256.664 168.797L255.472 170.403ZM450.66 178.3H449.66V179.3H450.66V178.3ZM450.66 39.7V38.7H449.66V39.7H450.66ZM489.36 39.7H490.36V38.7H489.36V39.7ZM489.36 178.3V179.3H490.36V178.3H489.36ZM398.76 127.3H397.76V128.3H398.76V127.3ZM398.76 90.7V89.7H397.76V90.7H398.76ZM541.56 90.7H542.56V89.7H541.56V90.7ZM541.56 127.3V128.3H542.56V127.3H541.56ZM451.66 178.3V39.7H449.66V178.3H451.66ZM450.66 40.7H489.36V38.7H450.66V40.7ZM488.36 39.7V178.3H490.36V39.7H488.36ZM489.36 177.3H450.66V179.3H489.36V177.3ZM399.76 127.3V90.7H397.76V127.3H399.76ZM398.76 91.7H541.56V89.7H398.76V91.7ZM540.56 90.7V127.3H542.56V90.7H540.56ZM541.56 126.3H398.76V128.3H541.56V126.3Z" fill="url(#paint1_linear_54_657)" mask="url(#path-1-outside-1_54_657)"/>
</g>
<defs>
<linearGradient id="paint0_linear_54_657" x1="278.5" y1="4" x2="278.5" y2="214" gradientUnits="userSpaceOnUse">
<stop stop-color="#EC8951"/>
<stop offset="1" stop-color="white" stop-opacity="0"/>
</linearGradient>
<linearGradient id="paint1_linear_54_657" x1="278.5" y1="4" x2="278.5" y2="214" gradientUnits="userSpaceOnUse">
<stop stop-color="#EC8951"/>
<stop offset="1" stop-color="#EC8951" stop-opacity="0"/>
</linearGradient>
</defs>
</svg>
