<svg version="1.2" xmlns="http://www.w3.org/2000/svg" viewBox="0 0 223 224" width="223" height="224"><style>.a{fill:#fbd3cc}.b{fill:#dbdbdb}.c{fill:#4a5781}.d{mix-blend-mode:soft-light;fill:#323941}.e{fill:#323941}.f{fill:#252c33}.g{fill:#f4b6a1}.h{fill:#f48c69}.i{fill:#e89f8b}.j{fill:#f4a286}.k{fill:#353945}.l{opacity:.6;mix-blend-mode:soft-light;fill:#33282c}.m{fill:#fff}.n{fill:#dd5150}.o{fill:#ed7777}.p{fill:#d43e3d}.q{fill:#dd605f}</style><path class="a" d="m0 0h223v223h-223z"/><path class="b" d="m179.9 223.3h-136.6c-1.5 0-2.8-1.1-3-2.5-2.3-16.8 1.3-34.1 11.3-48.1 4.8-6.7 11-12.6 18-17 8.8-5.6 19.1-8 28.2-13.1 0.8-0.5 1.6 0.5 1.2 1.2 6.5 5.6 19.8 5.2 26.7 1.3q0.4-0.2 0.7-0.2c0.1-0.5 0.5-1 1.1-0.7q0.5 0.2 0.9 0.4-0.7-0.4-1.5-0.7c-0.9-0.5-0.2-2.1 0.7-1.7 15.6 6.2 31.7 13.3 42.3 26.9 10.9 14 11.3 33.6 13 50.9 0.2 1.8-1.2 3.3-3 3.3z"/><path class="c" d="m155 158.4q-0.4 0-0.6 0.3c-13.6 0.4-27.2-0.4-40.8 0.2-14.7 0.6-29.2 2.2-43.9 3.6-1 0.1-0.9 1.8 0.1 1.8 15.4-0.6 30.8-0.5 46.2-0.7 7.5-0.1 15 0 22.5 0 5.4 0 12.8 1.4 17.8-0.7 0.7-0.3 1.2-1.1 1.3-1.8 0.1-1.8-0.7-3-2.6-2.7z"/><path class="c" d="m125.8 180.9c4.9 0.1 10 1 14.5-1.2 0.8-0.4 1.1-1.7 0.2-2.2-4.5-2.4-9.3-1.7-14.3-1.6q-10.3 0.1-20.6 0.6c-12.5 0.5-25 1.9-37.5 3.2-1 0.1-0.9 1.8 0.1 1.7 12.8-0.5 25.6-0.5 38.3-0.6q9.7 0 19.3 0.1z"/><path class="c" d="m150.8 191.9c-4.8-1.7-9.7-1-14.7-0.8-6.8 0.4-13.7 0.7-20.5 1.2q-19.9 1.3-39.6 3.7c-1 0.1-0.9 1.8 0.1 1.8q19.8-0.7 39.7-1.2c6.4-0.2 12.8-0.4 19.2-0.5 5.4-0.1 10.9 0.5 15.9-1.6 1.2-0.5 1-2.2-0.1-2.6z"/><path class="c" d="m143 208.6c-24.5-1.8-48.3-0.3-72.8 0.9-1.1 0-0.8 1.8 0.4 1.7 23.6-1.9 48.4 0.3 71.9 3.1 3.7 0.4 4.2-5.5 0.5-5.7z"/><path class="d" d="m144.3 220.8c-9.8-5.4-19-11.9-27.5-19.2-15.1-13.2-32-31-35.7-51.6-4 1.6-7.9 3.4-11.5 5.7-7 4.4-13.2 10.3-18 17-10 14-13.6 31.3-11.3 48.1 0.2 1.4 1.5 2.5 3 2.5h106q-2.5-1.2-5-2.5z"/><path class="e" d="m148.3 151.6c-12.4 21.7-16.2 46.8-17.5 71.7h49.1c1.8 0 3.2-1.5 3-3.3-1.7-17.3-2.1-36.9-13-50.9-5.8-7.5-13.4-13-21.6-17.5z"/><path class="f" d="m130.8 223.3h6.7c1.3-3.1 2.4-6.5 3.6-8.9 2.6-5.6 5.1-11.2 7.6-16.8 1.2-2.8 2.6-4.9 1.8-8-0.9-3.6-4.6-3.9-0.2-8.7 0.8-0.8 2.4-1.2 3.2-1.9q0.7-0.5 1.3-1.1 0.2 0 0.4-0.2c3.4-3.2 4.6-7.6 3.8-12.2-0.8-5-4-8.5-7.3-12q-1.7-1-3.4-1.9c-12.4 21.7-16.2 46.8-17.5 71.7z"/><path class="e" d="m74.4 153c-1.6 0.8-3.2 1.7-4.8 2.7-7 4.4-13.2 10.3-18 17-10 14-13.6 31.3-11.3 48.1 0.2 1.4 1.5 2.5 3 2.5h48.8c1.2-24.6-4.7-49.1-17.7-70.3z"/><path class="f" d="m73.6 154.1c-0.4 0-0.7 0.2-0.8 0.6q-0.3 1.5-0.7 2.9c-1.2 3.6-2.3 7.2-3.3 10.9-0.6 1.9-1.4 4.2-2 6.5-0.9 2.4-1.7 5.1-1.1 7.2 0.6 1.7 1.3 2.3 2.7 3.2 1.7 1 3.9 1 5.6 1.9 1.8 0.9 2.3 2 2.3 3.3q-0.1 0.9-0.7 1.8c-0.1 1.1-0.6 2.1-0.7 3.2q-0.2 0.5-0.3 1c-0.2 0.5 0 0.9 0.3 1.2 0.2 2 1.2 3.7 2.4 5.6 4.4 6.5 7.2 12.9 10.2 19.9h4.6c1.2-24.6-4.7-49-17.6-70.1q-0.5 0.4-0.9 0.9z"/><path class="g" d="m129 142.6c-0.7-1.2-1.4-1.4-2.4-2.3-1.4-1.3-2.4-3.1-3-4.9-0.7-2-1.2-4.1-1.7-6.1q0.3-0.1 0.5-0.1c2.2-0.4 1.2-4.1-0.9-3.3q-0.1 0.1-0.3 0.1c-0.4-1-1.9-0.5-1.7 0.6q0 0 0 0c-5.2 1.6-11 1.9-16.4 1.5q-0.4-0.7-0.8-1.3c-0.7-0.9-2.2-0.1-1.5 0.9q0 0.1 0.1 0.2-0.4 0-0.8 0c-1.1-0.2-1.1 1.7 0 1.7q0.8 0.1 1.6 0.1c1.6 4.8-2.3 8.9-4.5 13.1q0 0 0 0.1c-0.3 0.3-0.4 0.9-0.1 1.3 4 5 10 6.9 16 6.4 6.1 0.7 11.7-1.7 15.6-6.5q0.2-0.3 0.2-0.5c0.2-0.3 0.3-0.7 0.1-1z"/><path class="h" d="m128.3 141.7c-0.5-0.5-1-0.8-1.7-1.4-1.4-1.3-2.4-3.1-3-4.9-0.7-2-1.2-4.1-1.7-6.1q0.3-0.1 0.5-0.1c1.7-0.3 1.5-2.6 0.3-3.2-1.1 0-2.2 0.3-3.2 0.6q0 0 0 0-0.5 0.1-0.9 0.3c-1.5 0.4-2.9 0.9-4.3 1.3-4.1 0.9-8.3 1.6-12.5 1.8 0.4 1.4 0.3 2.7 0 4 6.7 6.2 18.1 11.4 26.5 7.7z"/><path class="g" d="m74.5 97.4c-0.5-2.1-1.4-4.1-2-6.2q-0.6-2.7-1-5.4c0.1-0.3 0.1-0.6-0.1-0.9q-0.2-2.1-0.3-4.1c-0.1-1.2-1.7-1.2-1.8 0q0 0.7-0.1 1.4-0.3-0.3-0.7-0.5c-1.3-0.7-3.2-1.3-4.7-1.2-3.2 0.1-4.8 3.5-5 6.4-0.7 7.5 7.5 14.7 15 13.1 0.4 0.2 1.1-0.1 1.1-0.6 0.5-0.6 0.3-1.6-0.4-2z"/><path class="i" d="m73.7 90.5c-3.2-0.8-6.3-1.6-9.2-3.2-1.2-0.6-2 1-1 1.7 2.9 2.1 6.6 3.2 10.2 2.7 0.7-0.1 0.6-1.1 0-1.2z"/><path class="g" d="m160 84.7c-0.3-3.2-2.4-6-5.8-6-3 0-5.2 2-6.9 4.3q-0.3-1.3-0.6-2.5c-0.3-1.1-2-0.6-1.7 0.5 0.9 3.9 1 7.6 0.9 11.3-1 0-1.2 1.5-0.4 2q0.2 0.1 0.4 0.2-0.1 1.7-0.2 3.5c0 0.9 1.3 1 1.5 0.2q0.5-1.4 0.7-2.8c6.1 1.4 12.8-4.5 12.1-10.7z"/><path class="i" d="m152.9 84.7c-0.9 4.7-5.9 3.5-9.2 2.8-1.2-0.2-2 1.4-0.9 2 4.4 2.3 11.2 1.1 11.8-4.6 0.1-1-1.5-1.2-1.7-0.2z"/><path class="g" d="m109.4 135c-21.8 0-39.4-22.8-39.4-51 0-28.2 17.6-50.9 39.4-50.9 21.7 0 39.3 22.7 39.3 50.9 0 28.2-17.6 51-39.3 51z"/><path class="j" d="m141.9 92.3c-8.9 0-16.1 7.1-16.1 16 0 6.4 3.7 11.9 9.1 14.5 6.7-7.4 11.5-17.7 13.1-29.3-1.9-0.8-3.9-1.2-6.1-1.2z"/><path class="j" d="m141.9 92.3c-8.9 0-16.1 7.1-16.1 16 0 6.4 3.7 11.9 9.1 14.5 6.7-7.4 11.5-17.7 13.1-29.3-1.9-0.8-3.9-1.2-6.1-1.2z"/><path class="j" d="m70.8 94.3c1.8 11.6 6.7 21.8 13.5 29 6.1-2.2 10.4-8.1 10.4-15 0-8.9-7.2-16-16-16-2.9 0-5.6 0.7-7.9 2z"/><path class="d" d="m81.9 70.2c8.9-0.9 18.5-3.6 19.2-14.7q0-0.1 0-0.2c0.4-0.2 0.7-0.6 0.8-1.2q1.8-9.8 1.8-19.7-0.7-0.3-1.4-0.5c-18.4 4.3-32.3 25.1-32.3 50.1 0 28.2 17.6 51 39.3 51-20.5-12.2-24-41.6-27.4-64.8z"/><path class="k" d="m93.2 83.6c-4 0-7.3 3.3-7.3 7.4 0 0.7 0.7 1.4 1.4 1.4 0.8 0 1.4-0.7 1.4-1.5 0-2.5 2-4.5 4.5-4.5 2.5 0 4.5 2 4.5 4.5 0 0.8 0.6 1.4 1.4 1.4 0.7 0 1.4-0.6 1.4-1.4 0-4-3.3-7.3-7.3-7.3z"/><path class="k" d="m125.8 83.5c-4.1 0-7.4 3.3-7.4 7.3 0 0.8 0.6 1.5 1.4 1.5 0.8-0.1 1.4-0.7 1.4-1.5 0-2.5 2.1-4.5 4.6-4.5 2.5 0 4.6 2 4.6 4.5 0 0.8 0.6 1.4 1.4 1.4 0.8 0 1.5-0.6 1.5-1.4-0.1-4-3.4-7.3-7.5-7.3z"/><path class="j" d="m113.2 97.8c-1.1 1.1-5.8 1.2-7.1 0.1-0.3-0.2-0.4-1.2-0.3-2.5 0.1-4.3 1.9-12.6 3.8-12.6 0.2 0 0.3 0 0.4 0.2 2.3 1.3 4.2 13.8 3.2 14.8z"/><path class="l" d="m113.2 97.8c-1.1 1.1-5.8 1.2-7.1 0.1-0.3-0.2-0.4-1.2-0.3-2.5 5-1.5 4.8-8.5 4.2-12.4 2.3 1.3 4.2 13.8 3.2 14.8z"/><path class="m" d="m100.2 102.4c0 0 5.4 1 9.9 1 4.5 0 9.8-1.1 9.8-1.1 0 0-2.6 6.7-9.8 6.7-7.3 0-9.9-6.6-9.9-6.6z"/><path class="k" d="m98 72.9c-4.6 1.3-9 2.8-13.5 4.2-0.3 0.1-0.5 0.4-0.5 0.6-0.3 0.2-0.4 0.5-0.2 0.9 1.6 3.2 5.3 1.9 8 1 1.8-0.6 4-1 5.7-2 1.5-0.8 1.9-1.9 2.6-3.4 0.6-1.4-1.3-2-2.1-1.3z"/><path class="k" d="m133.2 77.3c-4.2-1.8-8.6-3.4-12.9-5.1-0.3-0.1-0.6 0-0.8 0.2-0.3 0-0.6 0.2-0.7 0.6-1.1 3.6 2.5 4.9 5.1 5.9 1.8 0.7 3.6 1.7 5.6 1.9 1.7 0.3 2.8-0.3 4.4-1.1 1.4-0.8 0.4-2.5-0.7-2.4z"/><path class="k" d="m151.3 67.2c-0.4-4.3-1.1-9.1-3.3-12.9-1.2-5.7-3.7-11.3-7-15.6-6.5-8.7-16.4-12.3-27-13.2-19.7-1.5-39.4 8.9-46.1 27.1-0.4 0.1-0.8 0.3-1.1 0.9-3.5 8.9-2.1 19.9 0.6 28.8q0 0.2 0.1 0.3c-0.1 0.4 0.2 0.8 1.1 0.6 3.3-0.5 7-7.9 8.4-10.5 1.5-2.7 2.8-5.6 3.7-8.7 1.5 1.1 3.6 1.4 5.5 0.9 2.3-0.7 4.6-2.6 6.1-4.9 2.4 2.4 5.2 4 9 3.4 2.2-0.4 4.2-1.7 5.7-3.5 1.7 2.1 4.2 3.5 7.1 3.5 2.8-0.1 6.2-1.9 8.5-4.4 1.8 2.3 4 4.2 7.1 4.8 2.1 0.4 4.9 0.1 7-1 0.6 3.4 2.2 6.9 3.8 9.7 1.8 3.1 4.4 7.4 8.1 8.2q0.4 0.1 0.6-0.1c0.3 0 0.5-0.1 0.7-0.4 2.5-3.6 1.8-8.8 1.4-13z"/><path class="n" d="m110.9 16c-23-0.7-40.8 15-46.7 36.4q0 0.1 0 0.1c-0.8 0.3-0.7 1.7 0.3 1.7 27.1-1.1 54.1 0.1 81.1 3.3 1.3 0.1 1.7-1.3 1.2-2.3q0.3-0.3 0.4-0.8c3.8-22-15.7-37.9-36.3-38.4z"/><path class="o" d="m78 39.7c-0.3-0.1-0.7-0.1-0.9 0.3q-0.3 0.7-0.7 1.5c-0.1 0.3-0.1 0.6 0.2 0.8 0.3 0.2 0.7 0.1 0.9-0.2q0.4-0.7 0.8-1.5c0.1-0.3 0-0.7-0.3-0.9z"/><path class="o" d="m91 36.8c-0.5-0.2-1.2 0-1.3 0.6q-0.1 0.6-0.3 1.2c-0.2 0.4 0.1 1 0.6 1.1 0.5 0.1 0.9-0.2 1.1-0.7q0-0.1 0.1-0.2 0-0.1 0-0.2 0 0 0 0c0.1 0 0.1-0.1 0.1-0.2q0.1-0.1 0.2-0.2c0.2-0.5 0-1.2-0.5-1.4z"/><path class="o" d="m90.1 30.2c0.2-0.5 0.4-0.9 0.4-1.4 0.1-0.4-0.5-0.7-0.8-0.5-0.5 0.2-0.8 0.7-1.1 1-0.4 0.4-0.3 1.1 0.2 1.4 0.2 0.1 0.4 0.1 0.6 0.1 0.4-0.1 0.5-0.3 0.7-0.6z"/><path class="o" d="m104.6 34.5c-0.5-0.1-1.1 0.1-1.2 0.7q-0.2 0.8-0.3 1.5c0 0.5 0.1 1 0.7 1.1 0.5 0.1 0.9-0.1 1-0.6q0.3-0.7 0.6-1.4c0.1-0.6-0.2-1.2-0.8-1.3z"/><path class="o" d="m106.3 23.1c-0.8 0.3-1.3 1.2-1.3 2 0 0.5 0.5 0.9 1 0.9 0.6-0.1 0.9-0.6 0.7-1.1q0-0.1 0-0.1 0 0 0-0.1c0 0.1 0.1-0.2 0.1-0.2 0 0 0.1-0.2 0.1-0.2 0 0 0.1-0.1 0.2-0.2 0.3-0.2 0.3-0.6 0.1-0.9-0.2-0.2-0.6-0.3-0.9-0.1z"/><path class="o" d="m118.1 34.2c-0.5 0-0.8 0.4-0.9 0.9q0 0.6-0.1 1.1c0 0.6 0.5 1.1 1 1.1 0.6-0.1 1.1-0.5 1.1-1.1q-0.1-0.5-0.1-1.1c-0.1-0.5-0.4-0.9-1-0.9z"/><path class="o" d="m123 25.6c-0.2-0.3-0.6-0.3-0.8 0l-0.4 0.5c-0.3 0.6 0.1 1.4 0.8 1.4 0.6 0 1.1-0.8 0.8-1.4z"/><path class="o" d="m131.1 36.2q-0.1 0.8-0.1 1.5c-0.1 0.5 0.4 0.9 0.9 0.9 0.4 0 0.9-0.4 0.9-0.9q-0.1-0.7-0.2-1.5c-0.1-0.9-1.4-0.9-1.5 0z"/><path class="o" d="m140 37.3q-0.3-0.5-0.6-1c-0.2-0.2-0.5-0.3-0.7-0.3-0.3 0.1-0.5 0.4-0.5 0.6q0.1 0.6 0.1 1.1c0.1 0.6 0.5 1.1 1.1 0.9 0.6-0.1 0.9-0.8 0.6-1.3z"/><path class="d" d="m91 19.8c-13.1 5.9-22.7 17.9-26.8 32.6q0 0.1 0 0.1c-0.8 0.3-0.7 1.7 0.3 1.7 27.1-1.1 54.1 0.1 81.1 3.3 1.3 0.1 1.7-1.3 1.2-2.3q0.3-0.3 0.4-0.8c0.7-4 0.6-7.8-0.1-11.3-9-1.6-17.9-3.3-26.7-6.7-10.5-4.2-20.4-9.7-29.4-16.6z"/><path class="p" d="m152.7 57.9c-0.2-1.7-0.3-3.5-1-5 0.1-0.4 0-0.8-0.4-1.2-5.6-4.7-12.6-5.3-19.6-6-10.2-1.1-20.5-1.4-30.7-0.8-9.5 0.5-19 1.8-28.2 3.6-3.5 0.7-12.2 0.9-11.9 6.1q0.1 0.3 0.2 0.4c-0.7 3.7-1.3 9.7 0.6 11.1 0.1 0.4 0.5 0.9 1 0.7 28.7-7.4 60.2-14.8 87.6 0.6 0.7 0.4 1.3 0 1.5-0.6 0.2 0 0.4-0.1 0.6-0.3 1.1-2.6 0.6-5.9 0.3-8.6z"/><path class="q" d="m117.7 58.4c1.3-4.6 1-9.2 0.1-13.7q-1.1 0-2.1 0c0.6 4.4 0.5 8.9 0.4 13.4q0 0.2 0 0.3 0.8 0.1 1.6 0.1 0-0.1 0-0.1z"/><path class="q" d="m142 55.5c0 2.6-0.2 5.3 0 8q1 0.4 2 0.8c1.6-5.1 0.9-11.2-0.3-16.6q-1.2-0.4-2.4-0.7c0.4 2.8 0.6 5.7 0.7 8.5z"/><path class="q" d="m71.3 48.8q-0.6 0-1.3 0.1c0.4 5.5-1.7 11.1-1.5 16.4q1.3-0.3 2.5-0.6c1.2-5.1-0.1-10.8 0.3-15.9z"/><path class="q" d="m129.7 45.5q-1.1-0.1-2.2-0.2c0.5 3 0.9 6 1 9.1 0 1.8 0 3.5 0 5.3q1.6 0.3 3.2 0.6c0.6-4.8-0.6-10.1-2-14.8z"/><path class="q" d="m107.1 58.6c0.5-4.8 0.1-9.4-1.1-13.9q-1 0-2 0c0.9 4.6 1 9.3 0.8 14q1.1-0.1 2.3-0.1z"/><path class="q" d="m82.3 46.9q-1.1 0.1-2.2 0.3 0.1 3.2 0.1 6.5c0 2.9-0.4 5.9 0 8.8q1.2-0.2 2.4-0.5c1-4.6 0.4-10.1-0.3-15.1z"/><path class="q" d="m93.2 45.4q-0.9 0.1-1.7 0.3c0.8 4.8 0.5 9.6 1.2 14.5q0.9-0.2 1.9-0.3c0.8-4.8-0.3-9.7-1.4-14.5z"/></svg>