<svg version="1.2" xmlns="http://www.w3.org/2000/svg" viewBox="0 0 223 223" width="223" height="223"><style>.a{fill:#c5e4f7}.b{fill:#323941}.c{mix-blend-mode:soft-light;fill:#323941}.d{fill:#d49e8c}.e{fill:#c97f67}.f{fill:#db8f76}.g{fill:#353945}.h{opacity:.6;mix-blend-mode:soft-light;fill:#33282c}.i{fill:#fff}.j{fill:#fccc6a}.k{fill:#f9b26b}</style><path class="a" d="m0 0h223v223h-223z"/><path class="b" d="m183 222.6h-143.2c-1.5 0-2.9-1.2-3.1-2.7-2.4-17.6 1.4-35.7 11.8-50.4 5.1-7.1 11.6-13.2 18.9-17.8 9.3-5.9 20.1-8.4 29.6-13.8 0.9-0.5 1.6 0.6 1.2 1.3 6.9 5.9 20.8 5.5 28 1.4q0.4-0.2 0.8-0.2c0-0.6 0.5-1 1.1-0.8q0.5 0.2 1 0.4-0.8-0.4-1.6-0.7c-0.9-0.5-0.2-2.1 0.7-1.8 16.4 6.5 33.3 14 44.4 28.3 11.4 14.7 11.9 35.2 13.6 53.3 0.2 1.9-1.3 3.5-3.2 3.5z"/><path class="c" d="m145.8 219.9c-10.4-5.6-20-12.4-28.9-20.1-15.8-13.8-33.5-32.5-37.4-54.1-4.2 1.7-8.3 3.5-12.1 6-7.3 4.6-13.8 10.7-18.9 17.8-10.4 14.7-14.2 32.8-11.8 50.4 0.2 1.5 1.6 2.7 3.1 2.7h111.2q-2.7-1.3-5.2-2.7z"/><path class="d" d="m129.7 137.9c-0.7-1.2-1.4-1.5-2.5-2.4-1.5-1.4-2.5-3.2-3.2-5.1-0.7-2.1-1.2-4.3-1.7-6.4q0.3-0.1 0.5-0.1c2.3-0.5 1.2-4.3-0.9-3.5q-0.2 0.1-0.4 0.2c-0.4-1.1-2-0.6-1.8 0.5q0 0.1 0 0.1c-5.4 1.7-11.5 2-17.2 1.6q-0.3-0.7-0.8-1.4c-0.7-1-2.3-0.1-1.6 0.9q0.1 0.1 0.1 0.3-0.4-0.1-0.8-0.1c-1.1-0.1-1.2 1.8 0 1.9q0.9 0 1.7 0c1.6 5-2.4 9.3-4.7 13.8q0 0-0.1 0.1c-0.2 0.3-0.3 0.9 0 1.3 4.1 5.3 10.4 7.2 16.7 6.8 6.4 0.7 12.3-1.9 16.4-6.9q0.2-0.3 0.2-0.5c0.2-0.3 0.3-0.7 0.1-1.1z"/><path class="e" d="m129 137c-0.5-0.5-1.1-0.9-1.8-1.5-1.5-1.4-2.5-3.2-3.2-5.1-0.7-2.1-1.2-4.3-1.7-6.4q0.3-0.1 0.5-0.1c1.8-0.4 1.5-2.8 0.3-3.4-1.1 0.1-2.3 0.3-3.4 0.7q0 0 0 0-0.4 0.1-0.9 0.2c-1.5 0.5-3 1.1-4.5 1.4-4.3 1-8.7 1.7-13.1 2 0.4 1.4 0.3 2.8 0 4.2 7.1 6.4 19 11.9 27.8 8z"/><path class="d" d="m74.1 90.6c-0.6-2.2-1.5-4.3-2.1-6.5q-0.7-2.9-1.1-5.7c0.2-0.3 0.2-0.6-0.1-1q-0.2-2.1-0.3-4.3c-0.1-1.2-1.8-1.2-1.9 0q0 0.7-0.1 1.5-0.3-0.3-0.7-0.5c-1.4-0.8-3.3-1.3-4.9-1.3-3.5 0.2-5.1 3.7-5.3 6.7-0.7 7.9 7.9 15.5 15.7 13.8 0.5 0.2 1.2-0.1 1.2-0.6 0.5-0.7 0.3-1.7-0.4-2.1z"/><path class="e" d="m73.3 83.3c-3.4-0.8-6.7-1.7-9.8-3.3-1.2-0.6-2.1 1-1 1.8 3.1 2.2 6.9 3.3 10.8 2.7 0.6-0.1 0.6-1.1 0-1.2z"/><path class="d" d="m163.7 77.2c-0.3-3.3-2.5-6.2-6.1-6.2-3.2 0-5.4 2-7.2 4.4q-0.3-1.3-0.7-2.5c-0.3-1.2-2-0.7-1.8 0.5 1 4 1.1 7.9 1 11.8-1 0-1.2 1.6-0.4 2.1q0.2 0.1 0.4 0.2-0.1 1.8-0.2 3.7c0 1 1.3 1.1 1.6 0.2 0.3-0.9 0.6-2 0.8-3 6.3 1.6 13.3-4.6 12.6-11.2z"/><path class="e" d="m156.2 77.2c-0.9 5-6.1 3.7-9.6 3-1.2-0.3-2.1 1.4-0.9 2 4.6 2.5 11.7 1.2 12.4-4.8 0.1-1-1.7-1.2-1.9-0.2z"/><path class="b" d="m155.3 86.3c-0.2-0.5-0.6-0.8-1.1-0.7-0.4 0.1-0.8 0.5-0.8 0.9 0.1 0.7 0.2 1.4 0.1 2.1-0.1 0.8-0.3 1.4-0.3 2.1 0.1 1.2 1.9 2 2.5 0.7 0.7-1.6 0.2-3.5-0.4-5.1z"/><path class="d" d="m110.6 130c-22.8 0-41.3-23.9-41.3-53.4 0-29.6 18.5-53.5 41.3-53.5 22.8 0 41.3 23.9 41.3 53.5 0 29.5-18.5 53.4-41.3 53.4z"/><path class="f" d="m83.1 116.4c3.8-3 6.2-7.7 6.2-12.9 0-9.3-7.6-16.8-16.9-16.8q-1.2 0-2.3 0.1c1.7 11.7 6.4 22 13 29.6z"/><path class="f" d="m149.2 86.7c-9.3 0-16.9 7.5-16.9 16.8 0 5.1 2.3 9.7 5.9 12.7 6.6-7.6 11.2-17.8 12.9-29.4q-0.9-0.1-1.9-0.1z"/><path class="c" d="m101.9 33.8q0.8-4.9 1.3-9.8c-19.3 4.5-33.9 26.3-33.9 52.6 0 27.4 16 50 36.5 53-20-16.7-19.6-50.3-23.5-76.7 8.5-0.3 12.7-5.7 18.6-17.4 0-0.1-0.1-0.2-0.1-0.3 0.5-0.2 0.9-0.6 1.1-1.4z"/><path class="g" d="m93.6 71.6c-4.2 0-7.6 3.5-7.6 7.7 0.1 0.8 0.7 1.5 1.5 1.5 0.8 0 1.5-0.7 1.5-1.5 0-2.6 2.1-4.7 4.7-4.7 2.5-0.1 4.7 2.1 4.7 4.7 0 0.8 0.6 1.5 1.4 1.5 0.8 0 1.5-0.7 1.5-1.5 0-4.3-3.4-7.7-7.7-7.7z"/><path class="g" d="m127.8 71.5c-4.2 0-7.7 3.5-7.7 7.7 0 0.8 0.6 1.5 1.5 1.5 0.8 0 1.5-0.7 1.5-1.5 0-2.6 2.1-4.7 4.8-4.8 2.6 0 4.8 2.2 4.8 4.8 0 0.8 0.6 1.4 1.5 1.4 0.8 0 1.5-0.6 1.5-1.4-0.1-4.3-3.6-7.7-7.9-7.7z"/><path class="f" d="m114.6 86.5c-1.1 1.1-6 1.2-7.4 0.1-0.3-0.2-0.4-1.2-0.4-2.6 0.2-4.5 2.1-13.2 4.1-13.2 0.1 0 0.2 0 0.4 0.1 2.3 1.5 4.4 14.6 3.3 15.6z"/><path class="h" d="m114.6 86.5c-1.1 1.1-6 1.2-7.4 0.1-0.3-0.2-0.4-1.2-0.4-2.6 5.3-1.6 5.1-8.9 4.5-13.1 2.3 1.5 4.4 14.6 3.3 15.6z"/><path class="i" d="m101.1 98c0 0 5.5 1.1 10.2 1.1 4.8 0 10.3-1.2 10.3-1.2 0 0-2.7 7-10.2 7.1-7.6 0-10.3-7-10.3-7z"/><path class="e" d="m98.7 60.4c-4.8 1.4-9.5 3-14.2 4.4-0.3 0.1-0.5 0.4-0.5 0.6-0.3 0.2-0.4 0.6-0.2 0.9 1.7 3.4 5.5 2 8.4 1.1 1.9-0.6 4.2-1 5.9-2 1.6-0.9 2.1-2.1 2.8-3.7 0.7-1.4-1.4-2-2.2-1.3z"/><path class="e" d="m135.7 65c-4.5-1.9-9.1-3.5-13.6-5.3-0.3-0.1-0.6 0-0.9 0.2-0.3 0-0.6 0.2-0.7 0.6-1.2 3.8 2.6 5.1 5.4 6.2 1.8 0.7 3.8 1.7 5.8 2 1.8 0.3 3-0.4 4.6-1.2 1.5-0.8 0.5-2.6-0.6-2.5z"/><path class="g" d="m108 92.6c-2.4-0.6-4.9-0.3-7.4-0.6-2.6-0.2-5.1-1-7.8-1.2-1.1-0.1-1.6 1.2-0.7 1.8 3.7 2.4 11.7 4.3 16 2.7 1.3-0.5 1.3-2.3-0.1-2.7z"/><path class="g" d="m125.8 89.4c-2.1 0.4-4.2 1.2-6.4 1.7-2.2 0.4-4.3 0.3-6.3 1.1-1.9 0.8-1 3.1 0.7 3.5 2.4 0.5 5.1-0.5 7.4-1.2 2.2-0.8 4.4-1.7 6.1-3.1 1.2-1-0.2-2.2-1.5-2z"/><path class="j" d="m140.2 34.2c-2.5-2.6-5.4-5-8.8-6.9q-1.7-1-3.4-1.8c-0.3-0.1-0.5-0.1-0.8-0.1q-0.7-0.3-1.6-0.6c0.1-3.6-2.1-6.8-5.6-8-3.3-1.1-6.5-0.2-9 1.8-1.4-1.7-3.9-2.7-6-2.4-1.9 0.3-3.3 1.4-4.2 2.9-2.3-1.9-6.2-1.1-8.5 0.9-2.1 1.9-3.5 5.3-3.7 8.5-10.1 4.2-18.2 12.1-22.4 22.2-1.4 3.5-3.7 10.9-3.5 16.9-0.4 3.5 1.7 7.1 4.5 9.2 0.2 0.7 1.2 1 1.7 0.2 4.5-7.6 9.4-17.6 9.9-26.9 5.5-1.6 10.7-5.4 13.9-10 8.7 2.7 19.5 4.2 26.9-1.5q0.2-0.1 0.3-0.2c3.6 1.7 7.2 3.6 10.7 5.7 3.5 2 6.8 4.7 10.6 6.1-0.6 10.3 1.5 19.4 8.2 28q0.1 0.5 0.6 0.8c1.1 1.3 3-0.2 2.6-1.8 4.8-15.1-1.2-31.9-12.4-43z"/><path class="k" d="m69.6 59.1c-1.9 1.7-2.3 4.7-2 7.2 0.1 1.2 1.7 1.2 1.8 0 0.2-2.3 1-4.6 1-6.9 0-0.4-0.5-0.6-0.8-0.3z"/><path class="k" d="m75.7 42.1c-0.9 0.5-1.4 1.1-1.8 2-0.5 0.8-0.7 1.6-1 2.5-0.4 1.1 1.5 1.7 1.8 0.5 0.1-0.8 0.4-1.4 0.9-2 0.4-0.6 0.8-1.2 1.2-1.9 0.5-0.7-0.4-1.6-1.1-1.1z"/><path class="k" d="m86.9 38q-0.8 0.7-1.6 1.4c-0.4 0.3-0.4 1 0 1.3 0.3 0.3 1 0.4 1.3 0q0.7-0.8 1.3-1.7c0.6-0.7-0.3-1.5-1-1z"/><path class="k" d="m94 27c-0.8 0.5-1.4 1.1-1.8 2-0.2 0.4-0.1 1 0.3 1.2 0.5 0.3 1 0.1 1.3-0.3q0.1-0.1 0.1-0.2 0.1 0 0.1-0.1 0.2-0.2 0.3-0.3c0.1 0 0.1-0.1 0.1-0.1q0.1-0.1 0.2-0.1 0.2-0.2 0.4-0.3c0.6-0.2 0.7-1 0.4-1.4-0.3-0.5-0.9-0.7-1.4-0.4z"/><path class="k" d="m104.4 31.5q-0.3 0.1-0.6 0.3c-0.2 0.2-0.4 0.4-0.6 0.6q-0.2 0.3-0.5 0.5c-0.2 0.4-0.2 0.7-0.3 1.1 0 0.6 0.7 1.1 1.2 0.9 0.3-0.1 0.6-0.2 0.9-0.4 0.2-0.2 0.3-0.5 0.5-0.7 0.1-0.2 0.2-0.4 0.3-0.6 0.1-0.3 0.2-0.6 0.3-0.8 0.2-0.7-0.6-1.3-1.2-0.9z"/><path class="k" d="m107.6 23.5c-0.4-0.3-1.1-0.2-1.4 0.3q-0.3 0.8-0.7 1.6c-0.2 0.4-0.1 1 0.4 1.3 0.4 0.2 1 0.1 1.2-0.4l0.9-1.4c0.3-0.5 0.1-1.2-0.4-1.4z"/><path class="k" d="m116.2 31.5c-0.5-0.2-1.1-0.1-1.4 0.4q-0.4 0.7-0.7 1.3c-0.2 0.5-0.1 1.1 0.3 1.3 0.5 0.3 1 0.1 1.3-0.3q0.4-0.6 0.9-1.2c0.3-0.5 0.1-1.2-0.4-1.5z"/><path class="k" d="m121.5 24.8c-0.5 0-0.8 0.4-0.8 0.8q-0.1 0.8-0.1 1.6c0 0.4 0.4 0.9 0.9 0.9 0.5 0 1-0.4 1-0.9q-0.1-0.8-0.1-1.6c-0.1-0.4-0.4-0.8-0.9-0.8z"/><path class="k" d="m128.3 35.9c-0.5-0.3-1.1-0.1-1.3 0.4-0.4 0.5-0.5 1.2-0.4 1.8 0.2 0.5 0.6 0.9 1 1.3 0.5 0.6 1.4 0.3 1.6-0.4 0.1-0.5 0.4-1.1 0.2-1.7-0.2-0.6-0.6-1.1-1.1-1.4z"/><path class="k" d="m139 41c0-0.1 0-0.2 0-0.2 0-0.1 0-0.2 0-0.2q0-0.2-0.1-0.5c0 0 0-0.1 0-0.2q0 0 0 0 0-0.2-0.1-0.3c0-0.2-0.2-0.5-0.3-0.6-0.4-0.4-0.9-0.4-1.4-0.2-0.8 0.4-0.9 1.8-0.5 2.5 0.3 0.6 0.8 1 1.4 1.3 0.3 0.2 0.8 0.2 1.1-0.1 0.3-0.3 0.4-0.8 0.1-1.2-0.1-0.1-0.1-0.2-0.2-0.3z"/><path class="k" d="m148.7 56.7q-0.1-1-0.3-1.9c-0.1-0.7-0.3-1.2-0.7-1.7-0.3-0.5-1.3-0.6-1.4 0.1-0.1 0.7-0.2 1.2 0 1.9q0.3 0.9 0.6 1.8c0.2 1 1.9 0.9 1.8-0.2z"/><path class="k" d="m150.6 67.6c-0.5-0.7-0.3-1.5-0.6-2.3-0.2-0.6-1-0.7-1.3-0.1-0.7 0.9-0.3 2.4 0.3 3.3 0.6 1.1 2.2 0.1 1.6-0.9z"/></svg>