<svg version="1.2" xmlns="http://www.w3.org/2000/svg" viewBox="0 0 223 223" width="223" height="223"><style>.a{fill:#d8c6e0}.b{fill:#4d6cba}.c{fill:#263f72}.d{fill:#5d80c6}.e{fill:#fff}.f{mix-blend-mode:soft-light;fill:#323941}.g{fill:#f8c9c1}.h{fill:#e89f8b}.i{fill:#f09384}.j{fill:#f8b6ab}.k{fill:#353945}.l{opacity:.6;mix-blend-mode:soft-light;fill:#33282c}.m{fill:#75493f}.n{fill:#84564f}.o{opacity:.7;mix-blend-mode:soft-light;fill:#323941}</style><path class="a" d="m0 0h223v223h-223z"/><path class="b" d="m174.7 221.6h-126.1c-1.4 0-2.6-1-2.8-2.4-2.1-15.5 1.2-31.5 10.4-44.4 4.5-6.2 10.2-11.6 16.6-15.7 8.2-5.2 17.7-7.3 26.1-12.1 0.8-0.5 1.5 0.5 1.1 1.1 6.1 5.2 18.3 4.8 24.7 1.2q0.3-0.1 0.6-0.1c0.1-0.5 0.5-0.9 1-0.7q0.4 0.2 0.9 0.3-0.7-0.3-1.4-0.6c-0.9-0.4-0.2-1.9 0.6-1.5 14.4 5.7 29.3 12.3 39.1 24.8 10 13 10.5 31 12 47 0.1 1.7-1.2 3.1-2.8 3.1z"/><path class="c" d="m112.2 175.2c-1 0-1.8-0.8-1.8-1.8 0-1 0.8-1.9 1.8-1.9 1 0 1.9 0.9 1.9 1.9 0 1-0.9 1.8-1.9 1.8z"/><path class="c" d="m112.2 190.3c-1 0-1.8-0.8-1.8-1.8 0-1.1 0.8-1.9 1.8-1.9 1 0 1.9 0.8 1.9 1.9 0 1-0.9 1.8-1.9 1.8z"/><path class="d" d="m87.1 158.6c-18.4 8.3-30.4 25.7-31.8 45.9-0.1 1.7 2.5 1.7 2.6 0 1.2-18.9 12.9-36.1 30-44.5 0.9-0.5 0.1-1.8-0.8-1.4z"/><path class="d" d="m141.9 163.5c-1-0.5-1.8 1.1-0.6 1.5 7.6 2.7 12.1 14.4 14.2 21.5 2.1 6.9 2.6 13.9 2.8 21.1 0 1.6 2.2 1.5 2.4 0 2-15.3-4.8-36.1-18.8-44.1z"/><path class="d" d="m84.2 182.6c0.2 4.2-1.3 8.5-0.6 12.7 0.1 0.7 1.1 0.6 1.3 0 1.1-4 0.2-8.4 0.9-12.5 0.2-1.2-1.7-1.4-1.6-0.2z"/><path class="d" d="m133.1 187.6c0.2 1.9 0.1 4 0.7 5.8 0.3 1 1.6 0.8 1.7-0.2 0.1-1.9-0.4-3.9-0.8-5.8-0.1-1-1.7-0.7-1.6 0.2z"/><path class="e" d="m126.7 147.8c-2.5-1.9-7.2-0.6-9.9-0.4-5.8 0.3-11.6 0.4-17.4 0.3-0.7-0.1-1.1 0.4-1.2 0.9q0 0 0 0c-1.1 5.2-1.9 10.1-1.8 15.6q0.1 0.4 0.3 0.6c0.2 0.2 0.4 0.3 0.6 0.2 3.7-0.4 7.3-2 10.5-3.9 2-1.2 4.5-2.8 6-4.9 3.8 5.1 8.8 8.3 13.5 12.6 0.4 0.4 1.3 0.3 1.4-0.3 1-5.4 3.2-16.7-2-20.7z"/><path class="f" d="m141.9 219.2c-9.1-5-17.6-10.9-25.5-17.7-13.9-12.2-29.5-28.7-32.9-47.6-3.7 1.5-7.3 3.1-10.7 5.2-6.4 4.1-12.1 9.5-16.6 15.7-9.2 12.9-12.5 28.9-10.4 44.4 0.2 1.4 1.4 2.4 2.8 2.4h97.9q-2.4-1.1-4.6-2.4z"/><path class="g" d="m77.4 105.3c-0.5-1.9-1.3-3.8-1.8-5.7q-0.6-2.5-1-5c0.2-0.3 0.2-0.6-0.1-0.9q-0.2-1.9-0.3-3.8c0-1-1.5-1-1.6 0q0 0.7-0.1 1.4-0.3-0.3-0.6-0.5c-1.3-0.7-3-1.2-4.4-1.1-3 0.1-4.4 3.3-4.6 5.9-0.6 6.9 7 13.6 13.8 12.1 0.4 0.2 1.1 0 1.1-0.5 0.4-0.6 0.3-1.5-0.4-1.9z"/><path class="h" d="m76.7 98.9c-3-0.7-5.8-1.5-8.6-2.9-1-0.6-1.8 0.9-0.9 1.6 2.8 1.9 6.1 2.9 9.5 2.4 0.6-0.1 0.5-1 0-1.1z"/><path class="g" d="m156.3 93.5c-0.3-2.9-2.2-5.4-5.3-5.4-2.8 0-4.8 1.8-6.4 3.9q-0.2-1.2-0.6-2.3c-0.3-1-1.8-0.6-1.5 0.5 0.8 3.6 0.9 6.9 0.8 10.4-0.9 0-1.1 1.4-0.3 1.8q0.1 0.1 0.3 0.2-0.1 1.6-0.1 3.3c-0.1 0.8 1.1 0.9 1.3 0.2q0.5-1.3 0.7-2.7c5.6 1.4 11.7-4.1 11.1-9.9z"/><path class="h" d="m149.8 93.5c-0.8 4.4-5.5 3.3-8.5 2.7-1.1-0.2-1.8 1.2-0.8 1.8 4 2.1 10.3 1 10.9-4.3 0.1-0.9-1.5-1.1-1.6-0.2z"/><path class="g" d="m127.7 147c-0.6-1-1.3-1.3-2.2-2.1-1.3-1.2-2.2-2.8-2.8-4.5-0.6-1.9-1.1-3.8-1.5-5.7q0.2 0 0.5-0.1c2-0.3 1-3.7-0.9-3q-0.1 0.1-0.3 0.2c-0.3-1-1.7-0.6-1.6 0.4q0 0.1 0 0.1c-4.7 1.5-10.1 1.7-15.1 1.4q-0.3-0.7-0.7-1.3c-0.6-0.8-2 0-1.5 0.9q0.1 0.1 0.2 0.2-0.4 0-0.7-0.1c-1.1-0.1-1.1 1.7 0 1.7q0.7 0 1.4 0c1.5 4.4-2.1 8.2-4.1 12.1q-0.1 0.1-0.1 0.1c-0.2 0.3-0.3 0.8 0 1.2 3.6 4.6 9.2 6.3 14.7 6 5.6 0.6 10.9-1.7 14.4-6.1q0.2-0.2 0.2-0.5c0.2-0.2 0.3-0.6 0.1-0.9z"/><path class="i" d="m127.1 146.2c-0.5-0.5-1-0.8-1.6-1.3-1.3-1.2-2.2-2.8-2.8-4.5-0.6-1.9-1.1-3.8-1.5-5.7q0.2 0 0.5-0.1c1.5-0.3 1.3-2.4 0.2-2.9-1 0-2 0.3-3 0.6q0 0 0 0-0.4 0.1-0.8 0.2c-1.3 0.4-2.7 0.9-3.9 1.2-3.9 0.9-7.7 1.5-11.6 1.7 0.4 1.3 0.3 2.5 0 3.7 6.2 5.7 16.7 10.6 24.5 7.1z"/><path class="g" d="m109.6 140c-20.1 0-36.4-21-36.4-47 0-26.1 16.3-47.1 36.4-47.1 20.1 0 36.3 21 36.3 47.1 0 26-16.2 47-36.3 47z"/><path class="j" d="m139.6 100.6c-8.2 0-14.8 6.6-14.8 14.8 0 5.9 3.4 10.9 8.4 13.3 6.2-6.8 10.5-16.3 12.1-27-1.8-0.7-3.7-1.1-5.7-1.1z"/><path class="j" d="m74 102.5c1.6 10.7 6.1 20 12.4 26.8 5.6-2.1 9.7-7.6 9.7-13.9 0-8.2-6.7-14.8-14.9-14.8-2.6 0-5.1 0.7-7.2 1.9z"/><path class="f" d="m84.2 80.2c8.3-0.8 17.1-3.4 17.8-13.6q0-0.1 0-0.2c0.3-0.2 0.6-0.5 0.7-1.1q1.6-9.1 1.7-18.1-0.7-0.3-1.3-0.6c-17 4-29.9 23.2-29.9 46.4 0 25.9 16.3 47 36.3 47-18.9-11.2-22.2-38.4-25.3-59.8z"/><path class="k" d="m94.6 88.6c-3.7 0-6.7 3.1-6.7 6.8 0 0.7 0.6 1.3 1.3 1.3 0.7 0 1.3-0.6 1.3-1.3 0-2.3 1.9-4.2 4.1-4.2 2.3 0 4.2 1.9 4.2 4.2 0 0.7 0.6 1.3 1.3 1.3 0.7 0 1.3-0.6 1.3-1.3 0-3.8-3.1-6.8-6.8-6.8z"/><path class="k" d="m124.8 88.5c-3.8 0-6.9 3.1-6.9 6.8 0 0.7 0.6 1.3 1.3 1.3 0.8 0 1.3-0.6 1.3-1.3 0-2.3 1.9-4.2 4.3-4.2 2.3 0 4.2 1.9 4.2 4.2 0 0.7 0.6 1.3 1.3 1.3 0.8 0 1.3-0.6 1.3-1.3 0-3.8-3.1-6.8-6.8-6.8z"/><path class="j" d="m113.1 101.7c-1 1-5.3 1.1-6.5 0.2-0.3-0.3-0.4-1.2-0.3-2.4 0.1-4 1.8-11.6 3.5-11.6 0.1 0 0.2 0 0.4 0.1 2 1.3 3.9 12.8 2.9 13.7z"/><path class="l" d="m113.1 101.7c-1 1-5.3 1.1-6.5 0.2-0.3-0.3-0.4-1.2-0.3-2.4 4.6-1.4 4.4-7.8 3.9-11.5 2 1.3 3.9 12.8 2.9 13.7z"/><path class="e" d="m101.2 105.9c0 0 4.9 1 9 1 4.2 0 9.1-1 9.1-1 0 0-2.4 6.1-9.1 6.2-6.6 0-9-6.2-9-6.2z"/><path class="m" d="m99 78.7c-4.1 1.3-8.3 2.7-12.4 3.9-0.3 0.1-0.4 0.3-0.5 0.6-0.2 0.2-0.3 0.4-0.1 0.8 1.5 2.9 4.8 1.7 7.4 0.9 1.7-0.5 3.6-0.9 5.2-1.8 1.4-0.8 1.8-1.8 2.4-3.2 0.6-1.3-1.2-1.8-2-1.2z"/><path class="m" d="m131.6 82.8c-3.9-1.7-7.9-3.1-11.9-4.7-0.3-0.1-0.6 0-0.8 0.2-0.2 0-0.5 0.1-0.6 0.5-1 3.4 2.3 4.5 4.7 5.4 1.7 0.7 3.4 1.6 5.2 1.9 1.5 0.2 2.6-0.4 4-1.1 1.4-0.7 0.4-2.3-0.6-2.2z"/><path class="m" d="m147.6 47.3c-2.4-2.3-5.4-3.3-8.3-3 1.1-2.4 1.2-5 0.5-7.5-0.3-0.9-1.6-0.7-1.7 0.2-0.1 2.4-0.7 4.9-1.8 7.1q-0.2 0.2-0.4 0.4c0.6-2.8 0-6.1-1.1-8.4-0.4-0.8-1.8-0.2-1.5 0.6 0.8 1.9 1.1 3.9 0.8 5.9q-0.1 0.5-0.2 0.9c-4.8-8.3-18.3-10.1-27.4-7-4.7 1.6-9 4.2-13.8 5.6-3.2 0.9-6.1 1.5-9.4 0.8-1.9-0.3-3.7-1.4-5.7-1.4-3.6 0-3.7 2.4-2.7 4.9-2-0.8-3.6-2.2-5.6-3.7-1.4-1.1-2.9-0.8-3.9 0.7-1.5 2.6-1.2 6 0.3 8.7-2.5-0.8-4.9-2-7.6-1.3-3.1 0.7-5.1 3.4-6.4 6.1-3.7 8.2-2.2 18.9 2.4 26.4 3.9 6.4 11 12.1 18.6 8.2 6.3-3.3 10-12 10.8-19.5 1.8 1.1 3.9 1.6 6.2 1.5 3.6-0.3 6.8-2.2 9-5 2.3 2.9 5.3 5.1 9.5 4.7 4.3-0.5 7.3-3.3 9.4-6.7 2.1 3.6 5.1 6.5 9.5 7.4 3 0.5 6.3-0.1 8.9-1.7 0.3 6.8 2 18.5 8.3 18.6 6.6 0.3 8.2-13.4 8.6-17.9 0.7-7.9 0.9-19.5-5.3-25.6z"/><path class="n" d="m70.1 64.8c0.6-0.6-0.2-1.9-1-1.3-2.7 2.1-6.4 1.4-8.9-0.7-0.8-0.8-2.1 0.1-1.6 1.2 2.3 4.3 8.5 4.3 11.5 0.8z"/><path class="n" d="m72 74.9c0.6-0.5 0-1.7-0.8-1.4-3.5 1.4-7.4 0.5-10.6-1.3-0.7-0.5-1.6 0.4-1.2 1.1 2.7 4.7 8.7 4.7 12.6 1.6z"/><path class="n" d="m93.4 53.7c-1.8 0.9-3.9 1.7-5.8 2.3-2.3 0.6-3.9-0.6-5.8-1.5-0.7-0.4-1.5 0.4-1.1 1.1 1.1 2.1 3 3.7 5.5 3.5 3.1-0.2 5.5-2.7 8.1-4 0.9-0.4 0.1-1.8-0.9-1.4z"/><path class="n" d="m144.7 67.7c1.1-5.1-0.4-9.8-3.3-14.1-0.5-0.7-1.8-0.3-1.5 0.7 1.4 4.2 1.9 8.7 2.4 13.1 0.2 1.2 2.1 1.8 2.4 0.3z"/><path class="n" d="m131.3 55.2c0.2-0.9-1-1.3-1.5-0.6-0.9 1.2-2.3 2.3-3.8 2.8-1.4 0.5-2.9 0.4-4.3 0.6-0.6 0.1-1 0.7-0.5 1.2 3.3 3.3 9.1-0.2 10.1-4z"/><path class="n" d="m112.5 49.1c-1 1.7-2 3.3-3.4 4.7-1.5 1.4-3.2 2.2-4.9 3.3-0.8 0.4-0.5 1.7 0.5 1.7 4.6 0 9.1-4.8 9.3-9.3 0.1-0.9-1.1-1.1-1.5-0.4z"/><path class="n" d="m90.5 62.6c-1.2 0.4-1.8 1.6-2.7 2.4-1 0.8-2.1 1.3-3.4 1.5-1.5 0.3-1.1 2.7 0.4 2.6 1.7 0 3.3-0.5 4.8-1.6 1.1-0.9 2.7-2.6 2.1-4.2-0.2-0.5-0.7-0.9-1.2-0.7z"/><path class="n" d="m73.4 51.2c-1-0.5-1.9-1.2-2.9-1.9-0.7-0.5-1.6 0.3-1 1 0.9 1 2 1.7 3.1 2.4 0.9 0.5 1.8-1 0.8-1.5z"/><path class="n" d="m112.1 61.6c-1.5 1.7-3.3 2.9-4.5 4.7-0.4 0.6 0.4 1.4 1 1 1.8-1.2 3-3.1 4.7-4.5 0.7-0.7-0.5-2-1.2-1.2z"/><path class="n" d="m122.1 40.5c-1.1 0.6-2.7 0.8-3.9 0.9-1.3 0.2-2.6 0.3-3.9 0-1.4-0.2-2 1.7-0.6 2.2 1.6 0.5 3.2 0.7 4.8 0.4 1.9-0.2 2.9-1 4.4-2.1 0.9-0.6 0.1-1.9-0.8-1.4z"/><path class="n" d="m131.4 62.2c-1.1 1.3-2.8 2.3-4.4 2.8-1 0.3-0.8 1.6 0.2 1.7 2.7 0.3 4.7-1.3 5.6-3.7 0.3-0.7-0.9-1.4-1.4-0.8z"/><path class="n" d="m145.9 74.2c-0.2-0.8-1.3-0.8-1.5 0-0.3 0.8-0.6 1.6-0.6 2.4-0.1 0.8 0 1.6 0.2 2.4 0.3 1.1 2 1.1 2.3 0 0.2-0.8 0.3-1.6 0.2-2.4 0-0.8-0.3-1.6-0.6-2.4z"/><path class="n" d="m71.4 82.1c-1.2 1.5-3.2 2.1-5.1 1.7-0.7-0.2-1.3 0.8-0.5 1.2 2.5 1.4 5.3 0.3 6.9-1.9 0.5-0.8-0.7-1.8-1.3-1z"/><path class="o" d="m144.4 74.6c-2.7-4.2-3.8-8.9-5.8-13.4q-0.1-0.1-0.3-0.2c-0.2-1.1-1.6-1.6-2.4-0.4-2.4 3.3-7.5 2.6-10.9 1.6-3.7-1.1-6.7-3.4-8.3-7-0.1-0.3-0.3-0.4-0.6-0.4-0.7 1.6-1.6 3-2.8 4.3-2.1 2.2-5.1 3.5-8.2 3.4-3.3-0.2-5.8-1.9-7.9-4.2q-0.3 1-0.8 2c-0.8 1.9-2 3.6-3.7 4.8q-0.8 0.6-1.7 1.1c-3.2 2.8-7.5 2.5-10.6 0.1-4.2 4.7-10.4 5.5-15.2 0.6-4.2-4.2-4.8-10.6-4.3-16.2-0.9-0.2-1.8-0.2-2.8 0.1-3.1 0.7-5.1 3.4-6.4 6.1-3.7 8.2-2.2 18.9 2.4 26.4 3.9 6.4 11 12.1 18.6 8.2 6.3-3.3 10-12 10.8-19.5 1.8 1.1 3.9 1.6 6.2 1.5 3.6-0.3 6.8-2.2 9-5 2.3 2.9 5.3 5.1 9.5 4.7 4.3-0.5 7.3-3.3 9.4-6.7 2.1 3.6 5.1 6.5 9.5 7.4 3 0.5 6.3-0.1 8.9-1.7 0.3 6.8 2 18.5 8.3 18.6 3.8 0.2 6-4.5 7.2-9.3-3-1.8-5.8-4.9-7.1-6.9z"/></svg>