<svg width="60" height="61" viewBox="0 0 60 61" fill="none" xmlns="http://www.w3.org/2000/svg">
<rect x="6.6665" width="53.3333" height="53.3333" rx="15" fill="url(#paint0_linear_379_588)"/>
<g filter="url(#filter0_b_379_588)">
<rect y="7" width="53.3333" height="53.3333" rx="15" fill="white" fill-opacity="0.1"/>
<rect x="0.5" y="7.5" width="52.3333" height="52.3333" rx="14.5" stroke="url(#paint1_linear_379_588)"/>
</g>
<path d="M37.365 42.0933C38.9507 42.0933 40.2407 40.8076 40.2407 39.2219V22.1947C40.2407 20.7076 39.0321 19.499 37.545 19.499H16.455C14.9678 19.499 13.7593 20.7076 13.7593 22.1947V39.2219C13.7593 40.8076 15.0493 42.0933 16.635 42.0933H23.2114V43.742H22.44C22.1012 43.7415 21.7761 43.8755 21.5361 44.1145C21.2962 44.3536 21.161 44.6783 21.1603 45.017V45.9779C21.1603 46.2655 21.3951 46.5007 21.6827 46.5007H32.3198C32.6074 46.5007 32.8427 46.2655 32.8427 45.9779V45.017C32.8424 44.8493 32.809 44.6832 32.7445 44.5283C32.68 44.3734 32.5856 44.2328 32.4667 44.1144C32.3478 43.996 32.2068 43.9022 32.0517 43.8383C31.8965 43.7744 31.7303 43.7417 31.5626 43.742H30.7881V42.0933H37.365ZM27.0021 40.7005C26.595 40.7005 26.265 40.3747 26.265 39.9676C26.265 39.5562 26.595 39.2262 27.0021 39.2262C27.405 39.2262 27.735 39.5562 27.735 39.9676C27.735 40.3747 27.405 40.7005 27.0021 40.7005ZM14.6164 37.8462V22.1947C14.6164 21.1833 15.4436 20.3562 16.455 20.3562H37.545C38.5564 20.3562 39.3836 21.1833 39.3836 22.1947V37.8462H14.6164Z" fill="white"/>
<path d="M34.6862 23.7417C34.1505 23.7417 33.7005 24.076 33.5248 24.5517H28.2705C28.0948 24.076 27.6405 23.7417 27.1091 23.7417C26.5777 23.7417 26.1277 24.076 25.952 24.5517H20.4748C20.3749 24.2789 20.1819 24.05 19.93 23.9053C19.678 23.7606 19.3831 23.7094 19.0971 23.7605C18.8111 23.8117 18.5522 23.962 18.3661 24.1851C18.1799 24.4082 18.0783 24.6897 18.0791 24.9803C18.0791 25.3076 18.2091 25.6216 18.4406 25.853C18.6721 26.0845 18.986 26.2146 19.3134 26.2146C19.8491 26.2146 20.2991 25.8803 20.4748 25.4088H23.5434C21.302 26.596 19.742 28.906 19.6134 31.5888H19.3391C19.0948 31.5888 18.8934 31.786 18.8934 32.0346V33.4231C18.8934 33.6674 19.0948 33.8688 19.3391 33.8688H20.732C20.9762 33.8688 21.1777 33.6674 21.1777 33.4231V32.0346C21.1777 31.786 20.9762 31.5888 20.732 31.5888H20.4705C20.6377 28.4903 22.9777 25.9574 25.982 25.4903C26.1148 25.7731 26.342 25.996 26.6291 26.1203C26.6248 26.1288 26.6205 26.1331 26.6162 26.1417L23.4577 32.4588C23.3848 32.6088 23.402 32.7931 23.5134 32.9217C23.6205 33.0546 23.7962 33.1103 23.9591 33.0631L27.002 32.1974L30.0405 33.0631C30.2415 33.1081 30.3898 33.0438 30.4862 32.9217C30.5977 32.7931 30.6191 32.6088 30.542 32.4588L27.4005 26.176C27.7605 26.0946 28.0605 25.8503 28.2191 25.5246C31.1291 26.0774 33.362 28.5588 33.5248 31.5888H33.2677C33.0234 31.5888 32.822 31.786 32.822 32.0346V33.4231C32.822 33.6674 33.0234 33.8688 33.2677 33.8688H34.6605C34.9048 33.8688 35.1062 33.6674 35.1062 33.4231V32.0346C35.1062 31.786 34.9048 31.5888 34.6605 31.5888H34.382C34.2534 28.906 32.6934 26.596 30.452 25.4088H33.5248C33.7005 25.8803 34.1505 26.2146 34.6862 26.2146C34.8483 26.2146 35.0088 26.1826 35.1586 26.1206C35.3083 26.0586 35.4444 25.9677 35.559 25.853C35.6736 25.7384 35.7646 25.6024 35.8266 25.4526C35.8886 25.3029 35.9205 25.1424 35.9205 24.9803C35.9205 24.2946 35.3677 23.7417 34.6862 23.7417Z" fill="white"/>
<defs>
<filter id="filter0_b_379_588" x="-13.8566" y="-6.85663" width="81.0467" height="81.0463" filterUnits="userSpaceOnUse" color-interpolation-filters="sRGB">
<feFlood flood-opacity="0" result="BackgroundImageFix"/>
<feGaussianBlur in="BackgroundImageFix" stdDeviation="6.92831"/>
<feComposite in2="SourceAlpha" operator="in" result="effect1_backgroundBlur_379_588"/>
<feBlend mode="normal" in="SourceGraphic" in2="effect1_backgroundBlur_379_588" result="shape"/>
</filter>
<linearGradient id="paint0_linear_379_588" x1="33.3332" y1="0" x2="33.3332" y2="53.3333" gradientUnits="userSpaceOnUse">
<stop stop-color="#F7D1B1"/>
<stop offset="1" stop-color="#E66529"/>
</linearGradient>
<linearGradient id="paint1_linear_379_588" x1="2.5004" y1="55.5913" x2="61.9986" y2="39.5502" gradientUnits="userSpaceOnUse">
<stop stop-color="white"/>
<stop offset="1" stop-color="white" stop-opacity="0"/>
</linearGradient>
</defs>
</svg>
