<svg width="60" height="61" viewBox="0 0 60 61" fill="none" xmlns="http://www.w3.org/2000/svg">
<rect x="6.6665" width="53.3333" height="53.3333" rx="15" fill="url(#paint0_linear_379_596)"/>
<g filter="url(#filter0_b_379_596)">
<rect y="7" width="53.3333" height="53.3333" rx="15" fill="white" fill-opacity="0.1"/>
<rect x="0.5" y="7.5" width="52.3333" height="52.3333" rx="14.5" stroke="url(#paint1_linear_379_596)"/>
</g>
<g clip-path="url(#clip0_379_596)">
<path d="M30.627 46.6934C30.5273 46.6348 30.4219 46.5762 30.3223 46.5177L29.707 46.7813C28.5 47.2969 27.0996 46.8282 26.4434 45.6915L25.3887 43.8634C24.7324 42.7266 25.0312 41.2794 26.0801 40.4884L26.6133 40.0899V39.7384L26.0801 39.3399C25.0312 38.5489 24.7383 37.1016 25.3887 35.9649L26.4434 34.1368C26.7598 33.5919 27.2578 33.1817 27.8496 32.9825C26.3906 32.3145 24.8027 31.9688 23.1973 31.9747C17.0156 31.9688 12 36.9844 12 43.1661V46.4122C12 47.2911 12.709 48.0001 13.5879 48.0001H30.8672C30.7852 47.795 30.7324 47.5782 30.7031 47.3555L30.627 46.6934Z" fill="white"/>
<path d="M23.1973 30.293C26.5919 30.293 29.3438 27.5411 29.3438 24.1465C29.3438 20.7519 26.5919 18 23.1973 18C19.8027 18 17.0508 20.7519 17.0508 24.1465C17.0508 27.5411 19.8027 30.293 23.1973 30.293Z" fill="white"/>
<path d="M41.6193 41.8008L40.3595 40.8574C40.4591 40.2363 40.4591 39.5977 40.3595 38.9766L41.6193 38.0332C42.006 37.7461 42.1114 37.2129 41.8712 36.791L40.8165 34.9629C40.5763 34.5469 40.0607 34.3711 39.6154 34.5645L38.1681 35.1797C37.6759 34.7813 37.1251 34.4648 36.5392 34.2363L36.3517 32.6719C36.2931 32.1914 35.8888 31.834 35.4025 31.834H33.2872C32.8068 31.834 32.3966 32.1973 32.338 32.6719L32.1505 34.2363C31.5587 34.4648 31.0138 34.7813 30.5216 35.1797L29.0743 34.5645C28.629 34.377 28.1134 34.5469 27.8732 34.9629L26.8185 36.791C26.5782 37.207 26.6837 37.7402 27.0704 38.0332L28.3302 38.9766C28.2306 39.5977 28.2306 40.2363 28.3302 40.8574L27.0704 41.8008C26.6837 42.0938 26.5782 42.627 26.8185 43.043L27.8732 44.8711C28.1134 45.2871 28.629 45.4629 29.0743 45.2754L30.5216 44.6543C31.0138 45.0527 31.5646 45.3691 32.1505 45.5977L32.338 47.1621C32.3966 47.6426 32.8009 48 33.2872 48H35.4025C35.8829 48 36.2931 47.6367 36.3517 47.1621L36.5392 45.5977C37.1251 45.3691 37.6759 45.0527 38.1681 44.6543L39.6154 45.2695C40.0607 45.457 40.5763 45.2871 40.8165 44.8652L41.8712 43.0371C42.1114 42.627 42.006 42.0938 41.6193 41.8008ZM34.3419 42.1992C33.0822 42.1992 32.0568 41.1738 32.0568 39.9141C32.0568 38.6543 33.0822 37.6289 34.3419 37.6289C35.6017 37.6289 36.6271 38.6543 36.6271 39.9141C36.6271 41.1738 35.6017 42.1992 34.3419 42.1992Z" fill="white"/>
</g>
<defs>
<filter id="filter0_b_379_596" x="-13.8566" y="-6.85663" width="81.0467" height="81.0463" filterUnits="userSpaceOnUse" color-interpolation-filters="sRGB">
<feFlood flood-opacity="0" result="BackgroundImageFix"/>
<feGaussianBlur in="BackgroundImageFix" stdDeviation="6.92831"/>
<feComposite in2="SourceAlpha" operator="in" result="effect1_backgroundBlur_379_596"/>
<feBlend mode="normal" in="SourceGraphic" in2="effect1_backgroundBlur_379_596" result="shape"/>
</filter>
<linearGradient id="paint0_linear_379_596" x1="33.3332" y1="0" x2="33.3332" y2="53.3333" gradientUnits="userSpaceOnUse">
<stop stop-color="#F7D1B1"/>
<stop offset="1" stop-color="#E66529"/>
</linearGradient>
<linearGradient id="paint1_linear_379_596" x1="2.5004" y1="55.5913" x2="61.9986" y2="39.5502" gradientUnits="userSpaceOnUse">
<stop stop-color="white"/>
<stop offset="1" stop-color="white" stop-opacity="0"/>
</linearGradient>
<clipPath id="clip0_379_596">
<rect width="30" height="30" fill="white" transform="translate(12 18)"/>
</clipPath>
</defs>
</svg>
