<svg width="60" height="61" viewBox="0 0 60 61" fill="none" xmlns="http://www.w3.org/2000/svg">
<rect x="6.6665" width="53.3333" height="53.3333" rx="15" fill="url(#paint0_linear_379_605)"/>
<g filter="url(#filter0_b_379_605)">
<rect y="7" width="53.3333" height="53.3333" rx="15" fill="white" fill-opacity="0.1"/>
<rect x="0.5" y="7.5" width="52.3333" height="52.3333" rx="14.5" stroke="url(#paint1_linear_379_605)"/>
</g>
<path d="M37.3125 33.9375H26.0625C24.5119 33.9375 23.25 35.1994 23.25 36.75V43.3125C23.25 44.8631 24.5119 46.125 26.0625 46.125H37.3125C38.8631 46.125 40.125 44.8631 40.125 43.3125V36.75C40.125 35.1994 38.8631 33.9375 37.3125 33.9375ZM36.7997 35.8125L32.8125 39.1875C32.1647 39.6703 31.1644 39.6356 30.6047 39.2222L26.5763 35.8125H36.7997ZM37.3125 44.25H26.0625C25.8139 44.25 25.5754 44.1512 25.3996 43.9754C25.2238 43.7996 25.125 43.5611 25.125 43.3125V37.0406L29.4394 40.6884C30.0844 41.1713 30.8831 41.4375 31.6875 41.4375C32.4919 41.4375 33.2906 41.1712 33.9797 40.6537L38.25 37.0406V43.3125C38.25 43.5611 38.1512 43.7996 37.9754 43.9754C37.7996 44.1512 37.5611 44.25 37.3125 44.25Z" fill="white"/>
<path d="M21.375 44.25H15.75V21.75H25.125V26.4375C25.125 26.6861 25.2238 26.9246 25.3996 27.1004C25.5754 27.2762 25.8139 27.375 26.0625 27.375H30.75V32.0625C30.75 32.3111 30.8488 32.5496 31.0246 32.7254C31.2004 32.9012 31.4389 33 31.6875 33C31.9361 33 32.1746 32.9012 32.3504 32.7254C32.5262 32.5496 32.625 32.3111 32.625 32.0625V25.5C32.6249 25.2514 32.5261 25.013 32.3503 24.8372L27.6628 20.1497C27.487 19.9739 27.2486 19.8751 27 19.875H14.8125C14.5639 19.875 14.3254 19.9738 14.1496 20.1496C13.9738 20.3254 13.875 20.5639 13.875 20.8125V45.1875C13.875 45.4361 13.9738 45.6746 14.1496 45.8504C14.3254 46.0262 14.5639 46.125 14.8125 46.125H21.375C21.6236 46.125 21.8621 46.0262 22.0379 45.8504C22.2137 45.6746 22.3125 45.4361 22.3125 45.1875C22.3125 44.9389 22.2137 44.7004 22.0379 44.5246C21.8621 44.3488 21.6236 44.25 21.375 44.25ZM30.3619 25.5H27V22.1381L30.3619 25.5Z" fill="white"/>
<path d="M27.9375 28.3125H18.5625C18.3139 28.3125 18.0754 28.4113 17.8996 28.5871C17.7238 28.7629 17.625 29.0014 17.625 29.25C17.625 29.4986 17.7238 29.7371 17.8996 29.9129C18.0754 30.0887 18.3139 30.1875 18.5625 30.1875H27.9375C28.1861 30.1875 28.4246 30.0887 28.6004 29.9129C28.7762 29.7371 28.875 29.4986 28.875 29.25C28.875 29.0014 28.7762 28.7629 28.6004 28.5871C28.4246 28.4113 28.1861 28.3125 27.9375 28.3125ZM27.9375 31.125H18.5625C18.3139 31.125 18.0754 31.2238 17.8996 31.3996C17.7238 31.5754 17.625 31.8139 17.625 32.0625C17.625 32.3111 17.7238 32.5496 17.8996 32.7254C18.0754 32.9012 18.3139 33 18.5625 33H27.9375C28.1861 33 28.4246 32.9012 28.6004 32.7254C28.7762 32.5496 28.875 32.3111 28.875 32.0625C28.875 31.8139 28.7762 31.5754 28.6004 31.3996C28.4246 31.2238 28.1861 31.125 27.9375 31.125ZM21.375 33.9375H18.5625C18.3139 33.9375 18.0754 34.0363 17.8996 34.2121C17.7238 34.3879 17.625 34.6264 17.625 34.875C17.625 35.1236 17.7238 35.3621 17.8996 35.5379C18.0754 35.7137 18.3139 35.8125 18.5625 35.8125H21.375C21.6236 35.8125 21.8621 35.7137 22.0379 35.5379C22.2137 35.3621 22.3125 35.1236 22.3125 34.875C22.3125 34.6264 22.2137 34.3879 22.0379 34.2121C21.8621 34.0363 21.6236 33.9375 21.375 33.9375ZM21.375 36.75H18.5625C18.3139 36.75 18.0754 36.8488 17.8996 37.0246C17.7238 37.2004 17.625 37.4389 17.625 37.6875C17.625 37.9361 17.7238 38.1746 17.8996 38.3504C18.0754 38.5262 18.3139 38.625 18.5625 38.625H21.375C21.6236 38.625 21.8621 38.5262 22.0379 38.3504C22.2137 38.1746 22.3125 37.9361 22.3125 37.6875C22.3125 37.4389 22.2137 37.2004 22.0379 37.0246C21.8621 36.8488 21.6236 36.75 21.375 36.75ZM21.375 39.5625H18.5625C18.3139 39.5625 18.0754 39.6613 17.8996 39.8371C17.7238 40.0129 17.625 40.2514 17.625 40.5C17.625 40.7486 17.7238 40.9871 17.8996 41.1629C18.0754 41.3387 18.3139 41.4375 18.5625 41.4375H21.375C21.6236 41.4375 21.8621 41.3387 22.0379 41.1629C22.2137 40.9871 22.3125 40.7486 22.3125 40.5C22.3125 40.2514 22.2137 40.0129 22.0379 39.8371C21.8621 39.6613 21.6236 39.5625 21.375 39.5625Z" fill="white"/>
<defs>
<filter id="filter0_b_379_605" x="-13.8566" y="-6.85663" width="81.0467" height="81.0463" filterUnits="userSpaceOnUse" color-interpolation-filters="sRGB">
<feFlood flood-opacity="0" result="BackgroundImageFix"/>
<feGaussianBlur in="BackgroundImageFix" stdDeviation="6.92831"/>
<feComposite in2="SourceAlpha" operator="in" result="effect1_backgroundBlur_379_605"/>
<feBlend mode="normal" in="SourceGraphic" in2="effect1_backgroundBlur_379_605" result="shape"/>
</filter>
<linearGradient id="paint0_linear_379_605" x1="33.3332" y1="0" x2="33.3332" y2="53.3333" gradientUnits="userSpaceOnUse">
<stop stop-color="#F7D1B1"/>
<stop offset="1" stop-color="#E66529"/>
</linearGradient>
<linearGradient id="paint1_linear_379_605" x1="2.5004" y1="55.5913" x2="61.9986" y2="39.5502" gradientUnits="userSpaceOnUse">
<stop stop-color="white"/>
<stop offset="1" stop-color="white" stop-opacity="0"/>
</linearGradient>
</defs>
</svg>
