<svg width="60" height="61" viewBox="0 0 60 61" fill="none" xmlns="http://www.w3.org/2000/svg">
<rect x="6.6665" width="53.3333" height="53.3333" rx="15" fill="url(#paint0_linear_379_614)"/>
<g filter="url(#filter0_b_379_614)">
<rect y="7" width="53.3333" height="53.3333" rx="15" fill="white" fill-opacity="0.1"/>
<rect x="0.5" y="7.5" width="52.3333" height="52.3333" rx="14.5" stroke="url(#paint1_linear_379_614)"/>
</g>
<path d="M35.75 19.25H18.25C17.9505 19.2534 17.6621 19.3643 17.4375 19.5625C18.3289 19.8761 19.1132 20.4359 19.6995 21.1771C20.2858 21.9182 20.65 22.8103 20.75 23.75C20.7691 23.9161 20.7691 24.0839 20.75 24.25V45.5C20.7494 45.7391 20.8174 45.9733 20.9459 46.1749C21.0744 46.3766 21.258 46.5371 21.475 46.6375C21.6925 46.7376 21.9341 46.7732 22.1713 46.7399C22.4084 46.7067 22.6309 46.6061 22.8125 46.45L26.375 43.4L29.9375 46.45C30.1639 46.6437 30.4521 46.7501 30.75 46.7501C31.0479 46.7501 31.3361 46.6437 31.5625 46.45L35.125 43.4L38.6875 46.45C38.9139 46.6436 39.2021 46.75 39.5 46.75C39.6808 46.7487 39.8595 46.7104 40.025 46.6375C40.242 46.5371 40.4256 46.3766 40.5541 46.1749C40.6826 45.9733 40.7506 45.7391 40.75 45.5V24.25C40.75 22.9239 40.2232 21.6521 39.2855 20.7145C38.3479 19.7768 37.0761 19.25 35.75 19.25ZM34.5 36.75H27C26.6685 36.75 26.3505 36.6183 26.1161 36.3839C25.8817 36.1495 25.75 35.8315 25.75 35.5C25.75 35.1685 25.8817 34.8505 26.1161 34.6161C26.3505 34.3817 26.6685 34.25 27 34.25H34.5C34.8315 34.25 35.1495 34.3817 35.3839 34.6161C35.6183 34.8505 35.75 35.1685 35.75 35.5C35.75 35.8315 35.6183 36.1495 35.3839 36.3839C35.1495 36.6183 34.8315 36.75 34.5 36.75ZM34.5 31.75H27C26.6685 31.75 26.3505 31.6183 26.1161 31.3839C25.8817 31.1495 25.75 30.8315 25.75 30.5C25.75 30.1685 25.8817 29.8505 26.1161 29.6161C26.3505 29.3817 26.6685 29.25 27 29.25H34.5C34.8315 29.25 35.1495 29.3817 35.3839 29.6161C35.6183 29.8505 35.75 30.1685 35.75 30.5C35.75 30.8315 35.6183 31.1495 35.3839 31.3839C35.1495 31.6183 34.8315 31.75 34.5 31.75ZM34.5 26.75H27C26.6685 26.75 26.3505 26.6183 26.1161 26.3839C25.8817 26.1495 25.75 25.8315 25.75 25.5C25.75 25.1685 25.8817 24.8505 26.1161 24.6161C26.3505 24.3817 26.6685 24.25 27 24.25H34.5C34.8315 24.25 35.1495 24.3817 35.3839 24.6161C35.6183 24.8505 35.75 25.1685 35.75 25.5C35.75 25.8315 35.6183 26.1495 35.3839 26.3839C35.1495 26.6183 34.8315 26.75 34.5 26.75ZM18.25 24.25V34.25H14.5C14.1685 34.25 13.8505 34.1183 13.6161 33.8839C13.3817 33.6495 13.25 33.3315 13.25 33V23.75C13.3163 23.087 13.6433 22.4774 14.159 22.0555C14.6747 21.6335 15.337 21.4337 16 21.5C16.663 21.5663 17.2726 21.8933 17.6945 22.409C18.1165 22.9247 18.3163 23.587 18.25 24.25Z" fill="white"/>
<defs>
<filter id="filter0_b_379_614" x="-13.8566" y="-6.85663" width="81.0467" height="81.0463" filterUnits="userSpaceOnUse" color-interpolation-filters="sRGB">
<feFlood flood-opacity="0" result="BackgroundImageFix"/>
<feGaussianBlur in="BackgroundImageFix" stdDeviation="6.92831"/>
<feComposite in2="SourceAlpha" operator="in" result="effect1_backgroundBlur_379_614"/>
<feBlend mode="normal" in="SourceGraphic" in2="effect1_backgroundBlur_379_614" result="shape"/>
</filter>
<linearGradient id="paint0_linear_379_614" x1="33.3332" y1="0" x2="33.3332" y2="53.3333" gradientUnits="userSpaceOnUse">
<stop stop-color="#F7D1B1"/>
<stop offset="1" stop-color="#E66529"/>
</linearGradient>
<linearGradient id="paint1_linear_379_614" x1="2.5004" y1="55.5913" x2="61.9986" y2="39.5502" gradientUnits="userSpaceOnUse">
<stop stop-color="white"/>
<stop offset="1" stop-color="white" stop-opacity="0"/>
</linearGradient>
</defs>
</svg>
