<svg width="30" height="30" viewBox="0 0 30 30" fill="none" xmlns="http://www.w3.org/2000/svg">
<path d="M21.25 3.75H8.75C6.625 3.75 5 5.375 5 7.5V8.5C5 9.5 4.875 10.375 4.5 11.375C4.125 12.75 2.75 13.75 1.25 13.75V16.25C2.75 16.25 4.125 17.25 4.5 18.625C4.875 19.5 5 20.5 5 21.5V22.5C5 24.625 6.625 26.25 8.75 26.25H21.25C23.375 26.25 25 24.625 25 22.5V21.5C25 20.5 25.125 19.625 25.5 18.625C26 17.25 27.25 16.25 28.75 16.25V13.75C27.25 13.75 25.875 12.75 25.5 11.375C25.125 10.5 25 9.5 25 8.5V7.5C25 5.375 23.375 3.75 21.25 3.75Z" stroke="#222222" stroke-width="1.5" stroke-miterlimit="10" stroke-linejoin="round"/>
<path d="M12.25 15H15.875C17.375 15 18.5 16.125 18.5 17.625C18.5 19.125 17.375 20.25 15.875 20.25H12.25V9.75H15.875C17.375 9.75 18.5 10.875 18.5 12.375C18.5 13.875 17.375 15 15.875 15H12.25Z" stroke="#222222" stroke-width="1.5" stroke-miterlimit="10" stroke-linecap="round" stroke-linejoin="round"/>
</svg>
