<svg width="30" height="30" viewBox="0 0 30 30" fill="none" xmlns="http://www.w3.org/2000/svg">
<path d="M17.5 19.9992C17.5 22.2117 16.5375 24.2117 15 25.5742C13.675 26.7742 11.925 27.4992 10 27.4992C5.8625 27.4992 2.5 24.1367 2.5 19.9992C2.5 16.5492 4.85 13.6242 8.025 12.7617C8.8875 14.9367 10.7375 16.6117 13.025 17.2367C13.65 17.4117 14.3125 17.4992 15 17.4992C15.6875 17.4992 16.35 17.4117 16.975 17.2367C17.3125 18.0867 17.5 19.0242 17.5 19.9992Z" stroke="#222222" stroke-width="1.5" stroke-linecap="round" stroke-linejoin="round"/>
<path d="M22.5 10C22.5 10.975 22.3125 11.9125 21.975 12.7625C21.1125 14.9375 19.2625 16.6125 16.975 17.2375C16.35 17.4125 15.6875 17.5 15 17.5C14.3125 17.5 13.65 17.4125 13.025 17.2375C10.7375 16.6125 8.8875 14.9375 8.025 12.7625C7.6875 11.9125 7.5 10.975 7.5 10C7.5 5.8625 10.8625 2.5 15 2.5C19.1375 2.5 22.5 5.8625 22.5 10Z" stroke="#222222" stroke-width="1.5" stroke-linecap="round" stroke-linejoin="round"/>
<path d="M27.5 19.9992C27.5 24.1367 24.1375 27.4992 20 27.4992C18.075 27.4992 16.325 26.7742 15 25.5742C16.5375 24.2117 17.5 22.2117 17.5 19.9992C17.5 19.0242 17.3125 18.0867 16.975 17.2367C19.2625 16.6117 21.1125 14.9367 21.975 12.7617C25.15 13.6242 27.5 16.5492 27.5 19.9992Z" stroke="#222222" stroke-width="1.5" stroke-linecap="round" stroke-linejoin="round"/>
</svg>
