<svg width="32" height="32" viewBox="0 0 32 32" fill="none" xmlns="http://www.w3.org/2000/svg">
<path d="M19.9 16.8696V20.9646C19.9 24.3846 18.535 25.7496 15.115 25.7496H11.035C7.63 25.7496 6.25 24.3846 6.25 20.9646V16.8696C6.25 13.4646 7.615 12.0996 11.035 12.0996H15.13C18.535 12.0996 19.9 13.4646 19.9 16.8696Z" stroke="#222222" stroke-width="1.5" stroke-linecap="round" stroke-linejoin="round"/>
<path d="M25.7501 11.02V15.115C25.7501 18.535 24.3851 19.9 20.9651 19.9H19.9001V16.87C19.9001 13.465 18.5351 12.1 15.1151 12.1H12.1001V11.02C12.1001 7.6 13.4651 6.25 16.8851 6.25H20.9801C24.3851 6.25 25.7501 7.615 25.7501 11.02Z" stroke="#222222" stroke-width="1.5" stroke-linecap="round" stroke-linejoin="round"/>
<path d="M31 20.5C31 26.305 26.305 31 20.5 31L22.075 28.375" stroke="#222222" stroke-width="1.5" stroke-linecap="round" stroke-linejoin="round"/>
<path d="M1 11.5C1 5.695 5.695 1 11.5 1L9.925 3.625" stroke="#222222" stroke-width="1.5" stroke-linecap="round" stroke-linejoin="round"/>
</svg>
