<svg width="30" height="30" viewBox="0 0 30 30" fill="none" xmlns="http://www.w3.org/2000/svg">
<path d="M27.5603 3.67006C26.6616 0.145785 20.8181 -1.0128 15.2875 0.952074C11.9961 2.12143 8.43295 3.95663 5.871 6.35301C2.82482 9.20223 2.33905 11.6822 2.53926 12.7184C3.24556 16.3747 8.25553 18.7647 10.315 20.5379V20.5486C9.70765 20.8475 5.26291 23.0969 4.22269 25.3967C3.12511 27.8228 4.3974 29.5637 5.23973 29.798C7.84951 30.5242 10.5276 29.2181 11.9668 27.0714C13.3556 24.9997 13.2401 22.3245 12.6365 20.9938C13.469 20.7741 14.4397 20.6757 15.6733 20.8198C19.1541 21.2263 19.8371 23.3998 19.7065 24.3093C19.576 25.219 18.8459 25.7191 18.6017 25.87C18.3576 26.0211 18.2831 26.0734 18.3036 26.1857C18.3332 26.3488 18.4462 26.3428 18.6543 26.3075C18.9409 26.2592 20.4822 25.5676 20.5481 23.8886C20.632 21.7568 18.5891 19.3722 14.9719 19.4345C13.4821 19.4602 12.5454 19.6019 11.8687 19.8537C11.8184 19.7962 11.7672 19.7396 11.7152 19.6838C9.47891 17.2979 5.34484 15.6102 5.52018 12.4027C5.58397 11.2366 5.98928 8.16612 13.4637 4.44162C19.5866 1.39064 24.4883 2.23018 25.3353 4.09088C26.5454 6.74918 22.7156 11.69 16.3571 12.4027C13.9345 12.6743 12.6589 11.7353 12.3415 11.3857C12.0075 11.0175 11.9577 11.0009 11.833 11.07C11.6298 11.1825 11.7586 11.5075 11.833 11.7012C12.0229 12.1953 12.8019 13.0715 14.1301 13.5074C15.2986 13.8908 18.1429 14.1014 21.5829 12.7709C25.4354 11.2807 28.4439 7.1352 27.5603 3.67006ZM11.1697 21.63C11.4584 22.6979 11.4267 23.6938 11.1285 24.5957C10.8913 25.313 10.4834 25.9634 9.9743 26.5188C8.82137 27.7766 7.2105 28.2522 6.51978 27.8515C5.77388 27.4191 6.14749 25.6457 7.48427 24.2327C8.92229 22.7126 10.9913 21.7351 10.9913 21.7351L10.9882 21.7289C11.0478 21.6968 11.1083 21.6638 11.1697 21.63Z" fill="#222222"/>
</svg>
