<svg width="30" height="30" viewBox="0 0 30 30" fill="none" xmlns="http://www.w3.org/2000/svg">
<path d="M26.25 14.375C26.25 20.9375 20.9375 26.25 14.375 26.25C7.8125 26.25 2.5 20.9375 2.5 14.375C2.5 7.8125 7.8125 2.5 14.375 2.5" stroke="#222222" stroke-width="1.5" stroke-linecap="round" stroke-linejoin="round"/>
<path d="M27.5 27.5L25 25" stroke="#222222" stroke-width="1.5" stroke-linecap="round" stroke-linejoin="round"/>
<path d="M18.1249 7.66187C17.6874 6.28687 18.1999 4.57437 19.6499 4.11187C20.4124 3.86187 21.3499 4.07437 21.8874 4.81187C22.3874 4.04937 23.3624 3.87437 24.1124 4.11187C25.5624 4.57437 26.0749 6.28687 25.6374 7.66187C24.9499 9.84937 22.5499 10.9869 21.8874 10.9869C21.2124 10.9869 18.8374 9.87437 18.1249 7.66187Z" stroke="#222222" stroke-width="1.5" stroke-linecap="round" stroke-linejoin="round"/>
</svg>
