<svg width="30" height="30" viewBox="0 0 30 30" fill="none" xmlns="http://www.w3.org/2000/svg">
<g clip-path="url(#clip0_382_6129)">
<path d="M27.3009 19.1228C29.7279 16.6957 29.7278 12.7607 27.3007 10.3337C24.8736 7.90675 20.9386 7.90682 18.5116 10.3339C16.0847 12.761 16.0847 16.696 18.5118 19.123C20.9389 21.55 24.8739 21.5499 27.3009 19.1228Z" stroke="black" stroke-width="1.5" stroke-miterlimit="10" stroke-linecap="round" stroke-linejoin="round"/>
<path d="M24.9052 14.729C24.9052 15.8329 24.0103 16.7277 22.9064 16.7277C21.8026 16.7277 20.9077 15.8329 20.9077 14.729M4.75768 29.1082H12.129C12.7091 29.1082 13.2774 28.9435 13.7676 28.6333C14.2578 28.3231 14.6499 27.8801 14.8983 27.3558L16.4134 24.1577C17.1084 22.6904 16.0408 20.9987 14.4173 20.9947L11.5465 20.986L12.0799 18.6873C12.3408 17.563 11.6259 16.4442 10.496 16.2086H9.85678L8.64371 18.7694C8.27894 19.5395 7.71534 20.1983 7.01104 20.6779L4.75774 22.2121M7.94302 12.5018L2.18477 7.60055C-0.543186 5.30597 1.33092 0.962913 4.77192 0.894151C6.04338 0.859652 7.18511 1.41133 7.94302 2.295C8.70082 1.41145 9.84231 0.85977 11.1136 0.894092C14.5595 0.963089 16.4287 5.31282 13.6997 7.60741L7.94302 12.5018ZM0.895733 22.2101H4.75768V29.1043H0.895733V22.2101Z" stroke="black" stroke-width="1.5" stroke-miterlimit="10" stroke-linecap="round" stroke-linejoin="round"/>
</g>
<defs>
<clipPath id="clip0_382_6129">
<rect width="30" height="30" fill="white"/>
</clipPath>
</defs>
</svg>
