<svg width="30" height="30" viewBox="0 0 30 30" fill="none" xmlns="http://www.w3.org/2000/svg">
<path d="M14.1079 13.8867V7.96875C14.1079 6.99791 13.3209 6.21094 12.3501 6.21094C11.3793 6.21094 10.5923 6.99791 10.5923 7.96875V17.3438" stroke="black" stroke-width="1.5" stroke-miterlimit="10" stroke-linecap="round" stroke-linejoin="round"/>
<path d="M17.6235 14.7703V14.123C17.6235 13.1522 16.8366 12.3652 15.8657 12.3652C14.8949 12.3652 14.1079 13.1522 14.1079 14.123V14.7703M21.1479 15.3517V14.7676C21.1479 13.7968 20.361 13.0098 19.3901 13.0098C18.4193 13.0098 17.6323 13.7968 17.6323 14.7676V15.3517" stroke="black" stroke-width="1.5" stroke-miterlimit="10" stroke-linecap="round" stroke-linejoin="round"/>
<path d="M10.5923 19.3945V15C8.65342 15 7.08434 16.5768 7.09371 18.5156L7.10314 20.4542C7.11199 22.8705 8.46346 25.0816 10.6099 26.1914C10.6099 27.8094 11.9216 29.1211 13.5396 29.1211H19.7329C21.3509 29.1211 22.6626 27.8094 22.6626 26.1914V25.6094C23.294 25.0553 23.7999 24.3728 24.1465 23.6075C24.4931 22.8422 24.6724 22.0118 24.6724 21.1717V15.3534C24.6724 14.3826 23.8854 13.5956 22.9146 13.5956C21.9438 13.5956 21.1568 14.3827 21.1568 15.3535V15.942M17.6323 7.96875H19.3901M16.0877 4.23984L17.3307 2.99689M8.62998 4.23984L7.38703 2.99689M5.32764 7.96875H7.08545M12.3589 2.57812V0.878906" stroke="black" stroke-width="1.5" stroke-miterlimit="10" stroke-linecap="round" stroke-linejoin="round"/>
</svg>
