<svg width="30" height="30" viewBox="0 0 30 30" fill="none" xmlns="http://www.w3.org/2000/svg">
<g clip-path="url(#clip0_382_6113)">
<path d="M7.95177 7.0889L10.7994 16.7731L13.6466 7.0889H21.3663V8.05156L18.4596 13.0607C19.4807 13.3882 20.2529 13.9844 20.7765 14.8485C21.3003 15.713 21.5625 16.7274 21.5625 17.8928C21.5625 19.334 21.179 20.5451 20.413 21.5269C19.647 22.5087 18.6554 23 17.4381 23C16.5214 23 15.7232 22.709 15.0428 22.1262C14.3619 21.5434 13.8581 20.7546 13.5309 19.759L15.1407 19.0912C15.3765 19.6937 15.6876 20.1684 16.0738 20.515C16.46 20.8621 16.9149 21.0358 17.4384 21.0358C17.9878 21.0358 18.453 20.7281 18.8326 20.1128C19.2125 19.4973 19.4024 18.7577 19.4024 17.8927C19.4024 16.9366 19.1994 16.1965 18.794 15.6729C18.3219 15.0576 17.5822 14.7495 16.5743 14.7495H15.7893V13.8068L18.5382 9.05286H15.2203L15.0315 9.37441L10.9955 22.9975H10.7992L7.85335 13.1372L4.90818 22.9975H4.71201L0 7.08823H2.06176L4.90902 16.7724L6.83373 10.2514L5.89136 7.08856H7.95261V7.08789L7.95177 7.0889Z" fill="#222222"/>
<path d="M29.5528 7L29.8867 9.03116L28.7045 11.294C28.7045 11.294 28.2508 10.3339 27.4967 9.80296C26.8617 9.3554 26.4477 9.25796 25.8004 9.39152C24.9692 9.56306 24.0267 10.5571 23.6154 11.7829C23.1233 13.249 23.1184 13.959 23.101 14.6107C23.0734 15.6562 23.238 16.2733 23.238 16.2733C23.238 16.2733 22.52 14.945 22.5269 12.9996C22.5314 11.6105 22.7499 10.3512 23.3922 9.10861C23.9573 8.01591 24.7974 7.36003 25.5431 7.28292C26.314 7.20345 26.9228 7.57491 27.3939 7.97694C27.8879 8.39963 28.3875 9.32264 28.3875 9.32264L29.5497 7H29.5528Z" fill="#222222"/>
<path d="M29.6993 18.4906C29.6993 18.4906 29.1768 19.4252 28.8513 19.7851C28.5257 20.1455 27.9431 20.7793 27.2237 21.0967C26.5044 21.4137 26.1272 21.473 25.4159 21.4051C24.7057 21.3369 24.0455 20.9255 23.8142 20.7538C23.5829 20.5821 22.9916 20.0769 22.6572 19.6053C22.3226 19.1337 21.8003 18.1914 21.8003 18.1914C21.8003 18.1914 22.0912 19.1361 22.2739 19.5371C22.3785 19.7681 22.7007 20.4739 23.1583 21.0881C23.5851 21.661 24.4138 22.6477 25.6731 22.8705C26.9323 23.0936 27.7976 22.5276 28.0119 22.3908C28.2257 22.2541 28.6772 21.8757 28.9632 21.5694C29.2613 21.2509 29.5438 20.8437 29.6997 20.5996C29.8142 20.421 30.0001 20.0594 30.0001 20.0594L29.6995 18.4918L29.6993 18.4906Z" fill="#222222"/>
</g>
<defs>
<clipPath id="clip0_382_6113">
<rect width="30" height="30" fill="white"/>
</clipPath>
</defs>
</svg>
